<svg width="1915" height="464" viewBox="0 0 1915 464" fill="none" xmlns="http://www.w3.org/2000/svg">
<g clip-path="url(#clip0_109_1083)">
<rect width="1915" height="464" fill="white"/>
<rect y="-386" width="1915" height="850" fill="#FBF7EC"/>
<g clip-path="url(#clip1_109_1083)">
<path d="M35.0039 464V-386" stroke="white" stroke-width="0.999231" stroke-miterlimit="22.9256"/>
<path d="M80.0034 464V-386" stroke="white" stroke-width="0.999231" stroke-miterlimit="22.9256"/>
<path d="M125.003 464V-386" stroke="white" stroke-width="0.999231" stroke-miterlimit="22.9256"/>
<path d="M170.004 464V-386" stroke="white" stroke-width="0.999231" stroke-miterlimit="22.9256"/>
<path d="M215.003 464V-386" stroke="white" stroke-width="0.999231" stroke-miterlimit="22.9256"/>
<path d="M260.003 464V-386" stroke="white" stroke-width="0.999231" stroke-miterlimit="22.9256"/>
<path d="M305.002 464V-386" stroke="white" stroke-width="0.999231" stroke-miterlimit="22.9256"/>
<path d="M350.003 464V-386" stroke="white" stroke-width="0.999231" stroke-miterlimit="22.9256"/>
<path d="M395.003 464V-386" stroke="white" stroke-width="0.999231" stroke-miterlimit="22.9256"/>
<path d="M440.002 464V-386" stroke="white" stroke-width="0.999231" stroke-miterlimit="22.9256"/>
<path d="M485.001 464V-386" stroke="white" stroke-width="0.999231" stroke-miterlimit="22.9256"/>
<path d="M530.001 464V-386" stroke="white" stroke-width="0.999231" stroke-miterlimit="22.9256"/>
<path d="M575.002 464V-386" stroke="white" stroke-width="0.999231" stroke-miterlimit="22.9256"/>
<path d="M620.002 464V-386" stroke="white" stroke-width="0.999231" stroke-miterlimit="22.9256"/>
<path d="M665.001 464V-386" stroke="white" stroke-width="0.999231" stroke-miterlimit="22.9256"/>
<path d="M710 464V-386" stroke="white" stroke-width="0.999231" stroke-miterlimit="22.9256"/>
<path d="M755 464V-386" stroke="white" stroke-width="0.999231" stroke-miterlimit="22.9256"/>
<path d="M800.001 464V-386" stroke="white" stroke-width="0.999231" stroke-miterlimit="22.9256"/>
<path d="M845.001 464V-386" stroke="white" stroke-width="0.999231" stroke-miterlimit="22.9256"/>
<path d="M890 464V-386" stroke="white" stroke-width="0.999231" stroke-miterlimit="22.9256"/>
<path d="M934.999 464V-386" stroke="white" stroke-width="0.999231" stroke-miterlimit="22.9256"/>
<path d="M980.001 464V-386" stroke="white" stroke-width="0.999231" stroke-miterlimit="22.9256"/>
<path d="M1025 464V-386" stroke="white" stroke-width="0.999231" stroke-miterlimit="22.9256"/>
<path d="M1070 464V-386" stroke="white" stroke-width="0.999231" stroke-miterlimit="22.9256"/>
<path d="M1115 464V-386" stroke="white" stroke-width="0.999231" stroke-miterlimit="22.9256"/>
<path d="M1160 464V-386" stroke="white" stroke-width="0.999231" stroke-miterlimit="22.9256"/>
<path d="M1205 464V-386" stroke="white" stroke-width="0.999231" stroke-miterlimit="22.9256"/>
<path d="M1250 464V-386" stroke="white" stroke-width="0.999231" stroke-miterlimit="22.9256"/>
<path d="M1295 464V-386" stroke="white" stroke-width="0.999231" stroke-miterlimit="22.9256"/>
<path d="M1340 464V-386" stroke="white" stroke-width="0.999231" stroke-miterlimit="22.9256"/>
<path d="M1385 464V-386" stroke="white" stroke-width="0.999231" stroke-miterlimit="22.9256"/>
<path d="M1430 464V-386" stroke="white" stroke-width="0.999231" stroke-miterlimit="22.9256"/>
<path d="M1475 464V-386" stroke="white" stroke-width="0.999231" stroke-miterlimit="22.9256"/>
<path d="M1520 464V-386" stroke="white" stroke-width="0.999231" stroke-miterlimit="22.9256"/>
<path d="M1565 464V-386" stroke="white" stroke-width="0.999231" stroke-miterlimit="22.9256"/>
<path d="M1610 464V-386" stroke="white" stroke-width="0.999231" stroke-miterlimit="22.9256"/>
<path d="M1655 464V-386" stroke="white" stroke-width="0.999231" stroke-miterlimit="22.9256"/>
<path d="M1700 464V-386" stroke="white" stroke-width="0.999231" stroke-miterlimit="22.9256"/>
<path d="M1745 464V-386" stroke="white" stroke-width="0.999231" stroke-miterlimit="22.9256"/>
<path d="M1790 464V-386" stroke="white" stroke-width="0.999231" stroke-miterlimit="22.9256"/>
<path d="M1835 464V-386" stroke="white" stroke-width="0.999231" stroke-miterlimit="22.9256"/>
<path d="M1880 464V-386" stroke="white" stroke-width="0.999231" stroke-miterlimit="22.9256"/>
<path d="M0 16.4997H1915" stroke="white" stroke-width="0.999231" stroke-miterlimit="22.9256"/>
<path d="M0 61.5009H1915" stroke="white" stroke-width="0.999231" stroke-miterlimit="22.9256"/>
<path d="M0 106.5H1915" stroke="white" stroke-width="0.999231" stroke-miterlimit="22.9256"/>
<path d="M0 151.5H1915" stroke="white" stroke-width="0.999231" stroke-miterlimit="22.9256"/>
<path d="M0 196.499H1915" stroke="white" stroke-width="0.999231" stroke-miterlimit="22.9256"/>
<path d="M0 241.499H1915" stroke="white" stroke-width="0.999231" stroke-miterlimit="22.9256"/>
<path d="M0 286.5H1915" stroke="white" stroke-width="0.999231" stroke-miterlimit="22.9256"/>
<path d="M0 331.499H1915" stroke="white" stroke-width="0.999231" stroke-miterlimit="22.9256"/>
<path d="M0 376.499H1915" stroke="white" stroke-width="0.999231" stroke-miterlimit="22.9256"/>
<path d="M0 421.498H1915" stroke="white" stroke-width="0.999231" stroke-miterlimit="22.9256"/>
</g>
<path fill-rule="evenodd" clip-rule="evenodd" d="M203.596 433.799C203.384 442.23 204.627 454.994 204.66 464.313H152.668C153.042 460.496 153.529 456.684 153.739 452.857C153.99 448.17 153.866 443.476 153.949 438.783C153.963 438.035 150.571 424.01 174.304 420.685C189.59 418.547 204 417.904 203.597 433.8L203.596 433.799Z" fill="#A6C861"/>
<path fill-rule="evenodd" clip-rule="evenodd" d="M12.0695 355.372C13.5405 356.884 22.3673 362.464 24.3288 362.896C26.4998 363.375 29.5601 365.794 31.4547 364.297C33.6245 362.581 34.0045 357.552 34.3694 355.194C35.097 350.481 36.081 341.016 29.0946 339.102C27.2568 338.601 24.769 339.726 23.2885 340.411C19.2631 342.277 15.8991 344.217 12.0435 346.337C11.3768 346.703 8.89838 348.889 8.89838 348.889C6.5546 350.79 11.1435 354.42 12.0695 355.372Z" fill="#009679"/>
<path fill-rule="evenodd" clip-rule="evenodd" d="M93.3493 367.563C95.4988 367.011 104.884 362.218 106.153 360.809C107.561 359.25 109.219 356.952 108.511 354.78C107.701 352.289 104.874 350.684 102.649 349.385C98.2014 346.79 89.0672 341.968 84.1667 346.826C82.8799 348.105 82.957 350.602 83.0183 352.095C83.1907 356.156 83.8631 359.576 84.6863 363.564C85.0111 365.127 85.4581 367.381 85.4581 367.381C86.3793 370.091 91.9944 367.909 93.3497 367.563L93.3493 367.563Z" fill="#009679"/>
<path fill-rule="evenodd" clip-rule="evenodd" d="M49.6739 367.942C51.6599 368.864 62.1529 371.157 64.1544 370.914C66.37 370.646 69.6671 372.274 70.8159 370.258C72.1341 367.948 70.974 362.762 70.3496 360.448C69.1014 355.823 66.1495 346.692 58.8679 347.209C56.9529 347.347 55.0973 349.211 53.9999 350.334C51.0167 353.392 48.6794 356.304 45.9582 359.543C45.4882 360.103 44.0746 362.951 44.0746 362.951C42.6706 365.49 48.4237 367.361 49.6743 367.942L49.6739 367.942Z" fill="#009679"/>
<path fill-rule="evenodd" clip-rule="evenodd" d="M127.048 343.645C128.774 342.368 135.237 334.607 135.772 332.861C136.365 330.928 136.86 328.227 135.242 326.489C133.388 324.497 130.081 324.041 127.463 323.649C122.23 322.866 111.706 321.725 109.383 327.936C108.773 329.57 109.958 331.831 110.68 333.176C112.65 336.836 114.721 339.907 116.977 343.421C117.368 344.028 119.735 346.309 119.735 346.309C121.789 348.464 125.962 344.45 127.048 343.645Z" fill="#009679"/>
<path fill-rule="evenodd" clip-rule="evenodd" d="M150.994 306.579C151.934 304.76 154.026 295.258 153.667 293.475C153.271 291.501 152.416 288.873 150.12 287.933C147.489 286.854 144.285 287.723 141.736 288.384C136.64 289.706 126.599 292.752 127.494 299.253C127.731 300.964 129.89 302.543 131.189 303.479C134.729 306.016 138.074 307.982 141.801 310.278C142.446 310.674 145.68 311.816 145.68 311.816C148.571 312.963 150.4 307.725 150.995 306.579H150.994Z" fill="#009679"/>
<path fill-rule="evenodd" clip-rule="evenodd" d="M128.198 201.004C129.537 199.397 133.776 190.489 133.835 188.678C133.905 186.674 133.674 183.945 131.644 182.599C129.319 181.054 125.985 181.311 123.337 181.485C118.046 181.832 107.519 182.95 106.895 189.477C106.734 191.194 108.48 193.14 109.536 194.295C112.414 197.435 115.234 199.979 118.351 202.917C118.89 203.424 121.792 205.141 121.792 205.141C124.354 206.799 127.352 202.016 128.198 201.004L128.198 201.004Z" fill="#009679"/>
<path fill-rule="evenodd" clip-rule="evenodd" d="M147.165 172.015C149.387 171.782 159.511 168.412 161.017 167.206C162.688 165.872 164.737 163.843 164.43 161.597C164.08 159.021 161.58 157.028 159.618 155.424C155.698 152.219 147.551 146.136 141.84 150.22C140.339 151.295 139.966 153.772 139.757 155.253C139.195 159.286 139.076 162.872 138.843 166.922C138.803 167.622 139.37 172.412 140.755 173.259C142.143 174.108 145.765 172.162 147.165 172.015Z" fill="#009679"/>
<path fill-rule="evenodd" clip-rule="evenodd" d="M187.85 158.58C190.074 158.784 200.771 157.456 202.533 156.57C204.485 155.59 206.975 154.007 207.217 151.754C207.496 149.172 205.535 146.74 204.006 144.794C200.949 140.905 194.46 133.388 187.9 136.268C186.176 137.027 185.215 139.373 184.654 140.779C183.134 144.608 182.154 148.085 180.951 151.995C180.743 152.671 180.142 157.457 181.29 158.554C182.442 159.651 186.447 158.452 187.85 158.58Z" fill="#009679"/>
<path fill-rule="evenodd" clip-rule="evenodd" d="M128.362 234.492C128.689 232.509 127.696 222.864 126.79 221.245C125.786 219.453 124.138 217.149 121.638 216.831C118.774 216.464 115.976 218.111 113.739 219.393C109.268 221.955 100.6 227.426 103.511 233.433C104.279 235.014 106.847 235.982 108.388 236.547C112.584 238.082 116.413 239.119 120.713 240.374C121.457 240.59 126.762 241.346 128.034 240.368C129.31 239.386 128.154 235.742 128.362 234.491V234.492Z" fill="#009679"/>
<path fill-rule="evenodd" clip-rule="evenodd" d="M145.958 265.174C145.364 263.241 140.111 254.779 138.552 253.627C136.827 252.35 134.281 250.84 131.851 251.456C129.066 252.157 127.249 254.677 125.78 256.659C122.844 260.623 117.379 268.769 122.748 273.21C124.163 274.377 126.948 274.331 128.614 274.29C133.143 274.175 138.148 273.67 142.55 272.739C146.456 271.913 151.123 270.339 151.85 268.982C152.576 267.623 146.332 266.393 145.958 265.174H145.958Z" fill="#009679"/>
<path fill-rule="evenodd" clip-rule="evenodd" d="M122.333 202.063C119.305 213.356 120.567 226.214 124.442 237.794C129.854 253.959 140.355 267.646 151.393 271.168C170.744 277.336 204.45 283.029 222.812 276.485C228.982 274.29 245.055 268.634 256.369 260.093C267.772 251.479 274.399 239.974 275.056 238.298C277.076 233.152 277.325 231.065 276.704 229.244C276.081 227.418 272.325 227.358 271.323 227.358C264.754 227.363 260.447 227.298 253.945 226.241C252.183 225.957 250.507 225.317 248.815 224.789C247.329 224.33 245.903 223.727 244.415 223.273C244.172 223.196 264.373 217.303 272.954 211.026C290.052 198.526 281.378 174.524 265.544 164.989C237.315 147.991 204.043 147.529 170.983 158.887C148.818 166.503 130.928 169.994 122.333 202.064V202.063Z" fill="#BBD880"/>
<path fill-rule="evenodd" clip-rule="evenodd" d="M169.493 248.041C179.951 248.542 191.032 244.767 201.049 250.308C214.042 257.489 214.649 258.102 226.985 266.296C240.502 275.274 251.718 292.272 255.633 300.195C262.193 313.459 265.461 324.713 267.572 338.806C269.761 353.43 267.13 376.894 255.183 394.149C237.02 420.375 225.621 428.414 197.841 442.249C164.438 458.885 125.426 459.429 89.2227 452.159C49.3985 444.17 13.9382 417.715 0 383.769V331.617C0.115714 331.493 0.232941 331.372 0.352058 331.252C8.52237 323.064 14.4888 336.769 20.2707 341.825C40.5222 359.539 72.4018 368.386 98.2556 355.708C115.775 347.125 128.077 329.472 131.805 324.483C137.673 316.636 144.668 300.859 145.41 297.227C148.512 281.989 144.605 277.259 135.492 257.98L169.493 248.041L169.493 248.041Z" fill="#BBD880"/>
<path fill-rule="evenodd" clip-rule="evenodd" d="M129.133 199.444C125.28 198.494 88.75 130.189 88.75 130.189C88.75 130.189 166.852 157.833 171.307 164.002C174.068 167.814 157.832 183.659 155.096 186.208C146.482 194.237 135.517 201.012 129.133 199.444V199.444Z" fill="#F08B6A"/>
<path fill-rule="evenodd" clip-rule="evenodd" d="M133.907 146.919C137.497 148.316 141.05 149.716 144.452 151.084C128.65 151.104 113.012 149.245 97.5032 146.354C96.6524 144.794 95.8345 143.301 95.0732 141.902C107.925 144.416 120.86 146.264 133.907 146.919H133.907ZM111.288 164.397C113.979 164.652 116.658 165.08 119.383 165C129.827 164.696 140.375 163.903 150.537 161.549C154.29 160.678 158.021 159.626 161.709 158.435C163.625 159.33 165.323 160.158 166.741 160.915C161.775 162.642 156.723 164.148 151.627 165.326C141.15 167.754 130.284 168.586 119.521 168.902C116.596 168.987 113.722 168.548 110.833 168.281C110.416 168.242 110 168.203 109.579 168.17C108.817 166.82 108.057 165.46 107.297 164.104C108.63 164.182 109.964 164.276 111.288 164.397V164.397ZM133.464 183.727C144.408 182.882 154.993 180.417 164.733 176.193C162.656 178.59 160.447 180.909 158.635 182.745C150.719 185.351 142.379 186.952 133.833 187.613C129.567 187.941 125.293 187.973 121.016 187.922C120.265 186.676 119.479 185.36 118.662 183.984C123.598 184.073 128.54 184.104 133.464 183.727V183.727Z" fill="#009679"/>
<path fill-rule="evenodd" clip-rule="evenodd" d="M82.1647 124.6C79.6496 123.692 74.1808 126.68 77.5588 129.922C78.2047 130.538 78.9769 131.06 79.7797 131.522C80.6419 132.016 81.6527 132.306 82.5304 132.772C83.3158 133.194 84.7687 134.186 84.7687 134.186C84.7687 134.186 84.5255 134.079 84.4 134.023C84.0789 133.89 83.7734 133.715 83.427 133.619C82.2558 133.288 81.1127 132.853 79.8678 132.748C78.2153 132.611 73.4707 132.719 74.0212 135.489C74.6875 138.837 79.577 140.806 83.2269 140.839C83.9692 140.845 86.3546 140.293 86.3546 140.293C86.3546 140.293 85.4206 141.14 85.0742 141.632C83.6338 143.704 82.8476 146.02 83.8134 148.228C85.2425 151.481 89.8888 152.884 91.9312 148.796C92.8157 147.034 93.1375 143.223 93.1375 143.223C93.1375 143.223 93.3886 143.897 93.5512 144.221C93.8677 144.86 94.1494 145.523 94.5643 146.113C96.0848 148.261 98.1215 151.696 101.889 151.266C102.487 151.196 103.116 150.071 103.188 149.697C103.42 148.551 103.792 147.372 103.615 146.243C103.112 143.047 100.441 140.698 100.441 140.698C100.441 140.698 100.925 140.925 101.181 141.018C101.852 141.261 102.5 141.576 103.217 141.707C105.51 142.132 108.728 142.693 110.56 140.67C113.34 137.61 106.209 135.088 103.986 134.685C103.496 134.597 102.475 134.644 102.475 134.644C102.475 134.644 103.134 134.331 103.465 134.175C104.197 133.829 104.982 133.571 105.651 133.135C107.42 131.981 112.094 129.139 110.315 126.582C108.128 123.433 102.417 123.839 99.3588 126.276C98.3458 127.08 97.594 128.098 96.7711 129.044C96.5265 129.324 96.1597 129.95 96.1597 129.95C96.1597 129.95 95.9842 129.501 95.9574 129.266C95.8568 128.275 95.9283 127.261 95.7774 126.279C95.5074 124.513 95.0585 116.774 90.2182 118.303C84.1704 120.204 87.3465 127.819 89.823 130.64C89.823 130.64 85.3956 125.77 82.1651 124.6L82.1647 124.6Z" fill="#FCCD41"/>
<path fill-rule="evenodd" clip-rule="evenodd" d="M22.964 364.2C23.7691 367.651 26.8612 370.231 30.2861 371.722C32.6908 372.768 36.5714 373.726 39.0717 372.376C43.0528 370.226 40.5639 364.788 38.0949 362.559C37.488 362.013 32.6598 359.296 32.6598 359.296C28.89 357.785 21.8515 359.434 22.964 364.2V364.2Z" fill="#F08B6A"/>
<path fill-rule="evenodd" clip-rule="evenodd" d="M17.2956 346.839C15.9135 346.72 13.7308 346.97 14.1112 348.701C14.1933 349.062 14.3033 349.423 14.4508 349.769C15.0774 351.25 16.3775 352.508 17.6602 353.553C18.1665 353.967 19.0763 354.513 19.7532 354.656C20.9992 354.921 22.3103 353.878 22.5973 352.847C23.0401 351.279 21.8187 349.497 20.9353 348.498C20.0917 347.538 17.2956 346.839 17.2956 346.839Z" fill="#F08B6A"/>
<path fill-rule="evenodd" clip-rule="evenodd" d="M17.3546 370.481C20.0013 369.643 18.9153 366.398 17.4798 365.005C16.4637 364.016 14.7212 362.536 12.9496 364.045C11.4922 365.286 13.9131 371.571 17.3546 370.48V370.481Z" fill="#F08B6A"/>
<path fill-rule="evenodd" clip-rule="evenodd" d="M222.336 221.707C223.845 222.787 225.009 224.203 225.481 225.874C226.251 228.599 225.062 231.531 223.093 233.715C215.648 241.965 202.262 242.023 192.964 236.36C191.084 235.215 189.342 233.805 188.271 232.006C187.202 230.206 186.886 227.969 187.833 226.116C188.948 223.938 191.518 222.687 194.025 221.859C198.519 220.375 203.313 219.773 208.083 219.38C211.502 219.098 215.02 218.928 218.304 219.823C219.75 220.218 221.149 220.859 222.336 221.708V221.707Z" fill="#F08B6A"/>
<path d="M237.295 198.026C237.295 207.504 228.727 215.188 218.16 215.188C207.591 215.188 199.024 207.505 199.024 198.026C199.024 188.549 207.591 180.866 218.16 180.866C228.727 180.866 237.295 188.549 237.295 198.026Z" fill="#FEFEFE"/>
<path d="M209.308 196.908C209.471 197.583 209.713 198.24 210.02 198.873C216.64 212.533 243.731 203.792 234.149 189.462C227.491 179.506 206.336 184.61 209.308 196.908Z" fill="#675242"/>
<path fill-rule="evenodd" clip-rule="evenodd" d="M232.509 329.319L246.344 334.05L275.388 339.545L296.013 276.407L256.059 268.752L233.835 274.115L232.509 329.319Z" fill="#F08F6A"/>
<path fill-rule="evenodd" clip-rule="evenodd" d="M290.764 261.667C293.565 259.162 296.394 257.136 300.383 256.375C307.182 255.08 314.802 258.776 316.15 264.81C316.345 265.681 316.444 267.445 316.188 268.311C315.88 269.338 315.52 270.367 314.933 271.295C310.75 277.916 300.214 277.246 292.912 276.296C291.439 276.103 288.326 275.435 286.949 274.712L287.104 274.557C287.346 274.552 287.673 274.573 287.842 274.576C288.416 274.594 288.98 274.732 289.552 274.741C291.635 274.771 293.726 274.861 295.792 274.694C301.441 274.237 309.913 271.612 309.59 265.187C309.543 264.297 309.007 261.283 304.88 260.557C299.356 259.59 296.665 262.238 295.168 263.515C294.347 264.216 293.684 265.046 293.048 265.876C291.77 267.537 290.811 269.378 289.436 270.979C289.059 271.42 288.165 273.594 287.604 273.858C287.566 273.877 287.395 274.234 287.105 274.557C286.873 274.558 286.717 274.581 286.854 274.66L286.949 274.712C286.639 274.992 286.225 275.19 285.712 274.996C285.157 274.986 284.866 274.658 284.708 274.288L284.819 274.276C284.981 274.253 284.848 274.175 284.637 274.09C284.516 273.69 284.521 273.301 284.492 273.27C284.1 272.826 284.261 270.515 284.112 269.972C283.575 268.01 283.526 265.978 283.107 263.997C282.896 263.006 282.664 262.007 282.23 261.069C281.435 259.359 280.161 255.961 274.674 254.848C270.569 254.016 268.723 256.581 268.282 257.376C265.092 263.139 271.664 268.609 276.625 271.071C278.442 271.971 280.396 272.646 282.311 273.371C282.84 273.572 283.42 273.651 283.953 273.841C284.11 273.9 284.416 273.998 284.636 274.09C284.658 274.157 284.681 274.223 284.707 274.288C283.123 274.452 279.975 273.936 278.542 273.579C271.432 271.805 261.492 268.604 260.644 261.032C260.526 259.969 260.658 258.898 260.84 257.847C260.995 256.962 261.879 255.385 262.449 254.659C266.396 249.625 275.032 249.002 280.669 252.648C283.98 254.788 285.655 257.666 287.086 260.972C287.694 262.368 287.891 263.679 288.051 265.048C288.815 263.853 289.585 262.725 290.765 261.667L290.764 261.667Z" fill="#F08F6A"/>
<path fill-rule="evenodd" clip-rule="evenodd" d="M246.414 334.068L305.401 345.219L326.027 282.081L256.192 268.878L246.414 334.068Z" fill="#FCCD41"/>
<path fill-rule="evenodd" clip-rule="evenodd" d="M282.84 273.918L292.698 275.781L279.283 340.28L263.918 337.376L282.84 273.918Z" fill="#F08F6A"/>
<path fill-rule="evenodd" clip-rule="evenodd" d="M190.585 337.436C198.758 343.062 205.642 343.619 218.959 337.191C228.078 332.788 236.898 323.387 243.559 321.082C245.913 320.272 252.348 319.779 254.803 319.482C255.489 319.395 257.382 319.007 258.031 318.587C260.032 317.302 260.667 316.041 260.445 313.759C260.29 312.162 256.691 310.765 256.691 310.765C256.691 310.765 259.551 310.698 261.392 309.242C262.315 308.512 263.057 306.815 262.9 305.845C262.595 303.983 260.298 302.025 258.665 301.133C254.061 298.607 246.431 296.895 240.987 298.286C233.545 300.188 227.37 305.795 219.555 306.643C216.555 306.974 213.503 306.824 210.489 306.683C209.209 306.62 194.832 306.324 188.221 314.212C184.354 318.826 184.124 332.989 190.586 337.435L190.585 337.436Z" fill="#BBD880"/>
<path fill-rule="evenodd" clip-rule="evenodd" d="M212.972 327.513C213.922 327.587 215.048 327.425 215.71 326.744C216.254 326.186 216.397 325.815 216.593 325.104C216.755 324.517 216.693 323.568 215.98 323.261C215.892 323.225 215.016 321.893 212.235 322.226C210.1 322.48 209.009 323.525 209.023 324.044C209.074 326.005 210.878 327.348 212.972 327.514V327.513Z" fill="#F08B6A"/>
<path fill-rule="evenodd" clip-rule="evenodd" d="M194.417 331.772C194.534 332.143 194.712 332.5 194.916 332.837C195.124 333.185 195.346 333.531 195.646 333.815C196.458 334.575 197.492 335.122 198.579 335.496C200.697 336.221 203.729 336.494 205.348 334.745C207.16 332.791 206.705 329.632 204.626 327.977C204.186 327.628 201.434 326.086 198.918 326.357C196.357 326.632 193.559 329.112 194.417 331.771V331.772Z" fill="#F08B6A"/>
<path fill-rule="evenodd" clip-rule="evenodd" d="M189.816 319.08C189.288 319.65 189.265 320.438 189.417 321.122C189.771 322.749 191.29 324.903 193.342 325.032C193.645 325.053 193.956 325.043 194.254 324.989C197.282 324.435 197.829 321.074 196.057 319.113C195.457 318.444 194.241 317.691 193.198 317.685C192.16 317.682 190.67 318.151 189.816 319.08H189.816Z" fill="#F08B6A"/>
<path d="M202.945 342.248C202.668 342.248 202.396 342.244 202.123 342.235C198.31 342.105 193.988 341.959 190.644 339.583C185.648 336.037 184.421 329.012 184.889 324.072C184.919 323.757 185.232 323.513 185.579 323.551C185.93 323.578 186.192 323.856 186.162 324.171C185.721 328.825 186.837 335.421 191.437 338.686C194.455 340.829 198.377 340.96 202.171 341.089C206.536 341.235 211.172 340.138 215.977 337.83C220.422 335.696 224.649 332.923 228.737 330.244C230.472 329.106 232.199 327.973 233.936 326.894C234.736 326.395 235.513 325.892 236.282 325.394C239.834 323.097 243.191 320.924 247.719 319.84C249.249 319.474 250.825 319.22 252.347 318.977C254.074 318.699 255.86 318.414 257.551 317.962C259.063 317.559 260.067 316.916 260.381 316.153C260.63 315.54 260.452 314.81 259.847 313.98C259.033 312.855 257.615 312.092 256.364 311.417C256.12 311.286 256.002 311.026 256.075 310.781C256.148 310.534 256.394 310.36 256.677 310.354C258.804 310.307 260.605 309.483 261.376 308.199C262.035 307.1 261.879 305.751 260.937 304.401C258.714 301.215 254.414 299.488 252.046 298.742C248.2 297.532 244.026 297.431 240.294 298.461C237.35 299.278 234.623 300.755 231.984 302.186C231.266 302.573 230.551 302.962 229.829 303.338C223.028 306.886 216.648 308.109 210.329 307.082C209.983 307.025 209.753 306.726 209.817 306.415C209.878 306.103 210.21 305.897 210.559 305.954C216.649 306.948 222.569 305.801 229.187 302.348C229.901 301.975 230.613 301.591 231.323 301.204C234.028 299.739 236.824 298.223 239.917 297.366C243.909 296.267 248.368 296.371 252.47 297.661C254.993 298.458 259.59 300.311 262.019 303.793C263.216 305.508 263.386 307.265 262.5 308.743C261.755 309.984 260.306 310.891 258.527 311.284C259.428 311.836 260.293 312.49 260.918 313.355C261.755 314.504 261.977 315.577 261.579 316.546C261.118 317.674 259.851 318.544 257.915 319.06C256.156 319.53 254.334 319.822 252.572 320.104C251.075 320.345 249.527 320.593 248.048 320.948C243.748 321.977 240.484 324.088 237.029 326.324C236.255 326.825 235.472 327.333 234.664 327.834C232.938 328.91 231.219 330.038 229.491 331.171C225.368 333.874 221.104 336.67 216.58 338.842C211.87 341.103 207.287 342.249 202.944 342.249L202.945 342.248Z" fill="#009679"/>
<path d="M152.19 455.264C151.848 455.264 151.565 455.017 151.552 454.714C151.538 454.396 151.813 454.128 152.165 454.114C152.459 454.107 181.629 452.935 202.557 438.762C202.838 438.571 203.239 438.62 203.453 438.875C203.665 439.129 203.609 439.488 203.328 439.673C182.072 454.071 152.511 455.251 152.214 455.265H152.19V455.264Z" fill="#009679"/>
<path fill-rule="evenodd" clip-rule="evenodd" d="M182.861 403.72C193.294 402.215 209.39 398.103 219.742 396.709C227.346 395.684 231.242 394.779 239.098 394.988C248 395.225 254.109 437.519 245.459 439.821C242.267 440.668 235.908 441.91 232.616 442.361C226.046 443.265 219.374 443.455 212.781 444.246C206.704 444.98 200.672 444.839 194.723 446.081C186.846 447.725 178.839 448.855 170.781 449.469C170.631 445.982 172.57 442.707 173.096 439.249C174.997 426.741 160.44 406.955 182.861 403.72V403.72Z" fill="#BBD880"/>
<path fill-rule="evenodd" clip-rule="evenodd" d="M239.098 394.989C236.168 394.908 233.788 394.988 231.561 395.167C231.308 395.763 231.213 396.398 231.413 397.044C232.426 400.317 237.13 401.643 240.428 400.523C242.214 399.918 242.317 399.815 243.56 398.715C242.208 396.433 240.697 395.032 239.098 394.99V394.989ZM244.928 401.45C242.273 400.606 239.255 402.245 237.674 404.096C236.842 405.069 236.1 406.281 236.491 407.547C237.507 410.818 242.21 412.144 245.508 411.029C246.677 410.634 247.126 410.451 247.643 410.062C246.902 406.867 245.984 403.895 244.928 401.45H244.928ZM248.231 412.85C247.968 412.709 247.695 412.574 247.433 412.483C244.732 411.488 241.605 413.167 239.986 415.059C239.156 416.033 238.412 417.247 238.804 418.511C239.819 421.786 244.523 423.113 247.82 421.991C248.578 421.737 249.034 421.568 249.398 421.384C249.165 418.56 248.769 415.659 248.231 412.85L248.231 412.85Z" fill="#009679"/>
<path d="M171.051 412.674C170.978 412.674 170.903 412.66 170.831 412.638C170.499 412.525 170.33 412.201 170.454 411.904C171.541 409.265 173.996 406.907 177.366 405.265C180.451 403.761 183.992 402.96 186.837 402.317C202.288 398.814 220.522 395.178 238.78 395.304C239.915 395.307 241.016 395.35 241.996 395.828C243.427 396.525 243.825 397.56 244.248 398.655C244.496 399.3 244.761 399.834 245.025 400.366C245.433 401.192 245.856 402.045 246.101 402.973C246.184 403.291 246.26 403.719 246.335 404.153C246.424 404.665 246.548 405.367 246.661 405.586C246.808 405.872 246.669 406.212 246.348 406.345C246.028 406.482 245.648 406.354 245.499 406.066C245.326 405.727 245.222 405.184 245.073 404.33C245.003 403.928 244.934 403.532 244.857 403.236C244.64 402.412 244.261 401.644 243.858 400.831C243.579 400.27 243.301 399.706 243.076 399.124C242.658 398.036 242.381 397.32 241.386 396.834C240.668 396.485 239.778 396.453 238.775 396.45C220.675 396.424 202.524 399.944 187.149 403.427C184.374 404.055 180.92 404.838 177.977 406.272C174.878 407.783 172.632 409.922 171.651 412.3C171.555 412.534 171.312 412.674 171.051 412.674L171.051 412.674Z" fill="#009679"/>
<path d="M1680.16 105.444C1680.65 105.67 1681.16 105.876 1681.65 106.07C1685.22 107.468 1688.8 108.835 1692.39 110.169C1695.41 111.293 1698.25 112.619 1701.62 112.34C1702.22 112.288 1702.86 112.183 1703.36 111.856C1705.8 110.248 1704.4 104.204 1704.24 101.947C1703.94 98.0235 1703.4 94.1139 1702.61 90.2471C1702.4 89.2185 1702.15 88.1444 1701.39 87.3444C1699.96 85.8277 1697.36 85.8691 1695.2 86.2937C1691.89 86.9445 1688.63 89.9313 1686.06 91.8603C1683.44 93.8168 1675.07 98.8941 1676.63 102.467C1677.24 103.856 1678.64 104.75 1680.16 105.444H1680.16Z" fill="#009679"/>
<path d="M1719.86 133.421C1720.04 133.889 1720.26 134.351 1720.46 134.797C1721.98 138.008 1723.54 141.204 1725.12 144.387C1726.47 147.064 1727.51 149.78 1730.17 151.645C1730.66 151.984 1731.2 152.298 1731.81 152.367C1734.82 152.701 1738.43 147.447 1740.04 145.704C1742.83 142.67 1745.42 139.494 1747.81 136.194C1748.44 135.317 1749.08 134.38 1749.16 133.338C1749.28 131.355 1747.35 129.78 1745.44 128.757C1742.53 127.187 1737.89 127.354 1734.54 127.175C1731.15 126.995 1721.18 125.529 1719.56 129.084C1718.95 130.467 1719.28 131.981 1719.86 133.421L1719.86 133.421Z" fill="#009679"/>
<path d="M1738.56 180.535C1738.61 181.03 1738.69 181.525 1738.76 182.006C1739.32 185.457 1739.92 188.904 1740.55 192.345C1741.08 195.239 1741.34 198.104 1743.37 200.515C1743.75 200.954 1744.18 201.38 1744.75 201.586C1747.57 202.596 1752.55 198.34 1754.59 197.02C1758.16 194.723 1761.58 192.244 1764.82 189.598C1765.68 188.894 1766.55 188.134 1766.91 187.14C1767.6 185.253 1766.18 183.289 1764.64 181.867C1762.27 179.685 1757.72 178.783 1754.54 177.848C1751.31 176.899 1742.07 173.203 1739.52 176.275C1738.52 177.47 1738.42 179.01 1738.56 180.535V180.535Z" fill="#009679"/>
<path d="M1748.36 226.532C1748.37 227.03 1748.41 227.526 1748.45 228.011C1748.73 231.489 1749.05 234.966 1749.41 238.439C1749.72 241.36 1749.73 244.233 1751.58 246.766C1751.91 247.229 1752.3 247.683 1752.87 247.925C1755.59 249.112 1760.9 245.185 1763.05 243.999C1766.78 241.936 1770.38 239.682 1773.82 237.25C1774.74 236.603 1775.68 235.902 1776.12 234.933C1776.95 233.094 1775.69 231.045 1774.27 229.528C1772.08 227.2 1767.62 226.009 1764.52 224.872C1761.37 223.719 1752.46 219.443 1749.66 222.345C1748.56 223.472 1748.34 225.002 1748.36 226.532H1748.36Z" fill="#009679"/>
<path d="M1752.41 274.146C1752.42 274.644 1752.45 275.142 1752.49 275.627C1752.76 279.104 1753.1 282.58 1753.45 286.053C1753.76 288.975 1753.77 291.848 1755.62 294.382C1755.95 294.845 1756.35 295.299 1756.9 295.539C1759.63 296.727 1764.94 292.801 1767.09 291.614C1770.82 289.551 1774.42 287.297 1777.86 284.865C1778.79 284.218 1779.72 283.517 1780.16 282.548C1781 280.708 1779.74 278.661 1778.31 277.143C1776.12 274.815 1771.66 273.624 1768.56 272.488C1765.41 271.334 1756.5 267.058 1753.69 269.961C1752.61 271.089 1752.39 272.618 1752.41 274.146H1752.41Z" fill="#009679"/>
<path d="M1768.56 326.709C1769.03 326.959 1769.52 327.189 1770.01 327.408C1773.48 328.98 1776.97 330.524 1780.47 332.036C1783.42 333.31 1786.17 334.776 1789.55 334.663C1790.16 334.643 1790.8 334.568 1791.31 334.267C1793.85 332.784 1792.84 326.679 1792.81 324.418C1792.76 320.486 1792.46 316.556 1791.91 312.654C1791.76 311.617 1791.58 310.533 1790.87 309.696C1789.55 308.11 1786.94 308.022 1784.75 308.337C1781.4 308.822 1777.96 311.642 1775.27 313.439C1772.57 315.264 1763.89 319.914 1765.22 323.559C1765.74 324.977 1767.08 325.938 1768.56 326.709H1768.56Z" fill="#009679"/>
<path d="M1827.68 330.603C1828.22 330.521 1828.77 330.415 1829.29 330.307C1833.08 329.528 1836.87 328.719 1840.64 327.875C1843.82 327.168 1846.99 326.718 1849.5 324.7C1849.95 324.331 1850.39 323.908 1850.58 323.38C1851.48 320.785 1846.34 316.67 1844.71 314.947C1841.88 311.949 1838.84 309.096 1835.64 306.409C1834.79 305.694 1833.87 304.966 1832.75 304.725C1830.59 304.266 1828.52 305.691 1827.06 307.184C1824.84 309.477 1824.19 313.615 1823.41 316.537C1822.62 319.499 1819.24 328.049 1822.86 330.091C1824.27 330.884 1826 330.855 1827.68 330.603H1827.68Z" fill="#009679"/>
<path d="M1875.07 324.763C1875.59 324.911 1876.13 325.036 1876.67 325.153C1880.44 325.991 1884.22 326.796 1888.01 327.57C1891.2 328.221 1894.26 329.098 1897.51 328.313C1898.1 328.169 1898.72 327.97 1899.13 327.573C1901.24 325.617 1898.73 319.872 1898.14 317.674C1897.11 313.85 1895.85 310.079 1894.34 306.386C1893.93 305.404 1893.49 304.383 1892.6 303.71C1890.91 302.43 1888.34 302.864 1886.28 303.61C1883.14 304.755 1880.49 308.19 1878.33 310.48C1876.12 312.803 1868.82 319.076 1871.03 322.36C1871.89 323.638 1873.43 324.307 1875.07 324.763L1875.07 324.763Z" fill="#009679"/>
<path d="M1625.92 113.031C1627.51 113.454 1629.16 113.009 1630.7 112.359C1631.2 112.148 1631.7 111.914 1632.17 111.681C1635.59 110.015 1638.98 108.318 1642.36 106.593C1645.21 105.14 1648.12 103.941 1649.93 101.388C1650.27 100.922 1650.57 100.409 1650.58 99.8566C1650.63 98.2776 1648.78 97.6956 1647.62 96.8871C1645.83 95.6496 1644.01 94.4531 1642.15 93.3163C1638.5 91.0936 1634.69 89.0832 1630.76 87.3037C1628.85 86.4437 1626.65 85.6249 1624.67 86.3253C1619.95 87.9921 1621.44 95.5102 1621.78 98.9844C1621.6 101.709 1622.34 104.742 1622.6 107.466C1622.78 109.285 1623.59 112.414 1625.92 113.031Z" fill="#009679"/>
<path d="M1593.1 180.927C1592.84 180.613 1592.57 180.291 1592.33 179.96C1586.98 172.907 1586.12 163.783 1587.49 155.345C1590.19 138.702 1602.09 121.633 1616.83 111.287C1630.93 101.399 1649.07 95.6825 1666.85 97.4813C1679.78 98.7904 1693.27 105.159 1698.42 116.148C1705.13 130.455 1703.83 147.341 1696.04 161.097C1688.24 174.905 1677.22 181.692 1661.96 188.065C1650.66 192.793 1637.86 195.159 1625.4 193.938C1619.21 193.333 1613.14 191.824 1607.58 189.327C1602.66 187.124 1596.5 184.897 1593.1 180.927L1593.1 180.927Z" fill="#FCCD41"/>
<path d="M1663.11 157.851C1660.94 147.748 1662.58 138.323 1662.44 128.235C1662.31 118.736 1665.18 110.28 1662.21 100.744C1662.12 100.439 1662.03 100.101 1662.17 99.8152C1662.29 99.5972 1662.53 99.4561 1662.76 99.337C1665.67 97.8635 1669.24 98.0239 1672.54 98.4868C1685.27 100.275 1698.99 105.687 1708.24 113.804C1715.92 120.539 1722.4 128.376 1727.35 136.925C1736.42 152.594 1740.2 170.221 1743.87 187.565C1748.58 209.816 1753.3 232.11 1755.59 254.667C1756.86 267.174 1757.36 279.807 1760.22 292.138C1762.48 301.974 1764.07 314.536 1771.99 322.197C1775.16 325.271 1779.31 327.389 1783.53 329.209C1794.95 334.152 1807.23 337.74 1819.01 332.944C1831.09 328.015 1845.08 324.339 1858.34 323.397C1870.58 322.526 1883.4 324.459 1893.57 330.637C1904.39 337.208 1911.25 347.961 1915 359.241V404.917C1913.79 408.493 1912.28 411.988 1910.47 415.362C1899.95 434.962 1879.63 441.855 1857.45 447.382C1814.81 458.009 1768.21 455.41 1727.35 440.132C1718.71 436.902 1710.2 433.043 1703.39 427.27C1692.49 418.023 1687.01 404.741 1683.89 391.579C1675.6 356.634 1681.69 320.791 1688.08 286.037C1691.12 269.569 1694.29 253.104 1696.24 236.496C1698.05 221.053 1699.58 204.447 1694.2 189.416C1693.25 186.744 1692.04 184.079 1690 181.953C1687.95 179.827 1684.95 178.295 1681.82 178.452C1678.55 178.615 1675.76 180.519 1673.18 182.345C1672.92 182.53 1667.2 170.975 1666.79 169.881C1665.37 166.016 1663.95 161.814 1663.11 157.851L1663.11 157.851Z" fill="#FCCD41"/>
<path d="M1901.38 392.12C1898.86 391.022 1896.55 389.394 1894.39 387.117C1887.34 379.692 1884.67 368.988 1882.95 359.646C1882.14 355.218 1881.64 350.583 1881.55 346.097C1881.48 342.587 1880.39 341.015 1877.47 338.487C1874.41 335.835 1869.99 332.476 1865.62 331.863C1862.11 331.368 1857.94 332.31 1854.34 332.293C1847.21 332.26 1838.49 331.625 1831.7 333.809C1825.99 335.646 1821.71 337.16 1815.37 337.332C1808.15 337.528 1800.9 336.762 1793.92 335.08C1790.44 334.238 1787.01 333.17 1783.71 331.876C1774.5 328.279 1768.39 322.766 1765.9 313.865C1766.95 317.641 1770.87 320.12 1774.5 322.251C1782.94 327.203 1790.72 330.613 1800.94 331.269C1811.29 331.932 1821.3 329.032 1831.07 326.38C1840.65 323.778 1850.42 321.956 1860.26 320.403C1880.97 317.133 1896.51 324.43 1913.05 334.338C1913.7 334.728 1914.35 335.119 1915 335.511V393.725C1914.41 393.906 1913.76 393.936 1913.13 393.961C1908.66 394.132 1904.82 393.619 1901.38 392.121L1901.38 392.12Z" fill="#FCCD41"/>
<path d="M1749.23 428.79C1755.62 431.782 1761.71 435.347 1767.92 438.619C1771.9 440.727 1775.91 442.829 1779.95 444.86C1784.64 447.221 1788.56 450.401 1792.91 453.301C1791.14 453.441 1789.38 453.722 1787.65 454.149C1786.66 454.401 1785.65 454.717 1784.9 455.354C1784.27 455.9 1783.88 456.629 1783.56 457.357C1782.44 459.748 1781.98 462 1781.76 464.313H1728.46C1727.55 455.407 1726.42 446.453 1726.92 437.652C1727.16 433.483 1727.58 428.937 1732.23 427.13C1737.57 425.064 1744.31 426.654 1749.23 428.79V428.79Z" fill="#FCCD41"/>
<path d="M1905.66 422.479C1897.85 429.988 1894.2 440.377 1893.42 450.618C1893.2 453.371 1893.34 456.11 1893.4 458.863C1893.45 460.803 1892.94 462.465 1892.6 464.313H1840.79C1840.45 460.562 1839.82 456.712 1838.31 453.252C1836.42 448.881 1833.01 444.384 1835.38 439.551C1836.16 437.981 1837.48 436.678 1838.87 435.502C1857.76 419.544 1882.29 425.022 1905.19 422.262L1905.66 422.479H1905.66Z" fill="#FCCD41"/>
<path d="M1642.21 170.682C1639.83 170.682 1637.35 170.005 1635.19 168.748C1632.89 167.409 1630.88 165.386 1629.36 162.899C1629.12 162.502 1629.28 162.008 1629.73 161.793C1630.17 161.575 1630.71 161.721 1630.96 162.117C1632.33 164.37 1634.14 166.191 1636.18 167.384C1638.45 168.709 1641.13 169.282 1643.52 168.967C1644.7 168.811 1645.91 168.447 1647.36 167.82C1649.88 166.717 1652.16 165.226 1654.09 163.394C1654.44 163.068 1655.01 163.054 1655.37 163.365C1655.74 163.674 1655.76 164.189 1655.41 164.517C1653.32 166.492 1650.87 168.095 1648.15 169.286C1646.54 169.988 1645.16 170.397 1643.8 170.578C1643.28 170.648 1642.75 170.683 1642.21 170.683V170.682Z" fill="#73524F"/>
<path d="M1607.98 186.091C1604.54 186.091 1601.11 185.661 1597.79 184.794C1597.31 184.666 1597.03 184.214 1597.17 183.783C1597.31 183.35 1597.81 183.114 1598.3 183.227C1605.64 185.15 1613.59 184.82 1620.71 182.302C1627.82 179.781 1633.88 175.142 1637.78 169.24C1638.03 168.856 1638.59 168.728 1639.02 168.954C1639.45 169.183 1639.6 169.682 1639.34 170.071C1635.24 176.282 1628.86 181.163 1621.37 183.816C1617.1 185.329 1612.54 186.091 1607.98 186.091L1607.98 186.091Z" fill="#73524F"/>
<path d="M1621.04 125.716C1627.05 123.287 1633.91 128.051 1637.45 132.269C1641.41 136.988 1641.82 143.366 1637.36 147.95C1633.59 151.845 1627.31 153.414 1621.65 152.464C1619.16 152.047 1616.72 151.161 1614.85 149.629C1612.33 147.575 1611.06 144.484 1610.98 141.434C1610.91 138.387 1611.97 135.381 1613.55 132.681C1615.25 129.771 1617.7 127.066 1621.04 125.716H1621.04Z" fill="#FEFEFE"/>
<path d="M1626.44 129.59C1630.79 127.831 1635.76 131.283 1638.32 134.34C1641.19 137.759 1641.49 142.381 1638.26 145.702C1635.53 148.525 1630.97 149.661 1626.87 148.973C1625.07 148.67 1623.3 148.029 1621.95 146.919C1620.13 145.431 1619.19 143.19 1619.15 140.981C1619.09 138.772 1619.86 136.594 1621 134.639C1622.24 132.529 1624.02 130.571 1626.44 129.591V129.59Z" fill="#73524F"/>
<path d="M1654.32 141.131C1662.96 141.284 1667.54 148.592 1661.47 154.627C1658.35 157.733 1653.8 159.742 1649.1 159.732C1647.11 159.728 1645.06 159.377 1643.42 158.365C1640.91 156.816 1639.73 153.856 1640.14 151.147C1640.54 148.438 1642.36 146.004 1644.71 144.257C1647.39 142.264 1650.83 141.072 1654.32 141.131H1654.32Z" fill="#F0906E"/>
<path d="M1721.02 160.404C1721.07 155.139 1724.37 152.375 1729.32 156.466C1732.54 159.137 1733.21 163.619 1732.19 167.286C1731.7 169.009 1730.59 170.826 1728.67 171.258C1727.01 171.632 1725.26 170.819 1724.09 169.704C1721.54 167.296 1720.99 163.719 1721.02 160.403V160.404Z" fill="#F08F6A"/>
<path d="M1718.24 185.062C1718.28 180.584 1721.09 178.235 1725.3 181.713C1728.03 183.983 1728.6 187.798 1727.74 190.915C1727.32 192.381 1726.38 193.926 1724.74 194.294C1723.33 194.612 1721.85 193.92 1720.85 192.97C1718.69 190.925 1718.21 187.882 1718.24 185.062Z" fill="#F08F6A"/>
<path d="M1714 148.515C1712.15 146.721 1710.85 142.093 1714.45 140.956C1717.37 140.034 1720.46 144.02 1720.88 146.232C1721.16 147.752 1720.36 149.506 1718.73 150.036C1717.07 150.586 1715.21 149.688 1714 148.515Z" fill="#F08F6A"/>
<path d="M1732.92 204.492C1730.75 203.013 1731.51 198.787 1731.91 196.706C1732.41 194.006 1735.52 193.049 1737.16 196.104C1738.05 197.758 1738.66 201.969 1737.54 203.538C1736.58 204.882 1734.33 205.46 1732.92 204.493L1732.92 204.492Z" fill="#F08F6A"/>
<path d="M1855.73 328.474C1859.53 327.362 1864.78 326.233 1866.6 330.266C1867.66 332.609 1866.59 335.051 1864.56 336.631C1860.2 340.038 1853.52 338.354 1852.28 333.226C1851.99 332.007 1852.14 330.611 1853.09 329.707C1853.79 329.056 1854.78 328.753 1855.73 328.474V328.474Z" fill="#F08F6A"/>
<path d="M1834.97 333.642C1835.06 332.195 1836.69 331.241 1838.23 330.784C1840.6 330.072 1847.46 331.03 1844.41 334.428C1842.64 336.408 1834.73 337.616 1834.97 333.641L1834.97 333.642Z" fill="#F08F6A"/>
<path d="M1872.57 336.492C1872.66 335.045 1874.29 334.092 1875.83 333.635C1878.21 332.923 1885.06 333.883 1882.01 337.279C1880.24 339.259 1872.33 340.467 1872.57 336.491V336.492Z" fill="#F08F6A"/>
<path d="M1822.49 347.887C1821.09 346.468 1820.63 344.493 1822.41 342.638C1823.26 341.748 1824.7 341.555 1826.02 341.592C1827.96 341.646 1829.91 342.078 1831.65 342.851C1832.57 343.256 1833.47 343.781 1834 344.564C1836.22 347.848 1829.8 349.933 1827.19 349.882C1825.46 349.849 1823.65 349.057 1822.49 347.887H1822.49Z" fill="#F08F6A"/>
<path d="M1815.11 336.869C1817.15 333 1822.31 335.752 1819.77 338.272C1819.2 338.842 1818.41 339.197 1817.59 339.399C1816.78 339.596 1815.81 339.617 1815.24 339.077C1814.63 338.51 1814.75 337.578 1815.11 336.868V336.869Z" fill="#F08F6A"/>
<path d="M1726.98 440.881C1727.05 440.902 1761.15 454.436 1805.91 454.436C1835.24 454.436 1869.16 448.622 1901.02 429.351L1900 427.999C1868.51 447.046 1834.98 452.804 1805.91 452.811C1783.74 452.811 1764.17 449.448 1750.16 446.093C1743.16 444.412 1737.54 442.73 1733.67 441.477C1731.75 440.846 1730.25 440.321 1729.24 439.957C1728.74 439.774 1728.36 439.634 1728.11 439.536C1727.97 439.487 1727.87 439.452 1727.81 439.424L1727.73 439.389L1726.98 440.881Z" fill="#F08F6A"/>
<path d="M451.314 437.505C455.409 445.121 459.023 452.942 462.213 460.89C462.671 462.028 463.118 463.169 463.554 464.313H471.097C467.148 452.649 462.648 441.036 456.232 430.503C447.629 416.386 436.436 403.089 421.298 394.143C425.957 396.897 427.821 402.323 430.619 406.364C434.65 412.186 439.268 417.636 443.109 423.586C446.039 428.131 448.769 432.783 451.314 437.505H451.314Z" fill="#FCCD41"/>
<path d="M441.563 382.285C439.899 374.39 439.153 366.34 439.325 358.306C439.398 354.855 439.397 351.319 440.463 347.996C440.898 346.633 441.331 345.328 441.697 343.936C441.944 342.994 443.755 339.851 443.516 339.099C447.424 351.427 454.717 363.063 455.626 375.853C456.009 381.273 455.221 386.711 454.045 392.038C452.994 396.799 451.294 401.349 449.992 406.037C449.462 407.951 449.257 409.941 448.775 411.875C448.597 412.588 446.613 417.127 446.919 417.508C444.545 414.537 446.373 405.252 445.726 401.075C444.746 394.747 442.887 388.555 441.563 382.284V382.285Z" fill="#FCCD41"/>
<path d="M461.251 390.983C464.345 380.886 468.393 370.819 468.672 360.24C469.939 365.769 471.329 371.274 472.843 376.754C474.654 383.305 476.656 389.95 476.237 396.689C475.802 403.649 472.69 411.65 467.41 416.824C461.588 422.527 455.97 427.68 453.478 435.345C455.624 428.745 455.398 422.012 456.457 415.356C457.756 407.195 458.81 398.949 461.251 390.983H461.251Z" fill="#FCCD41"/>
<path d="M492.075 395.823C492.095 395.926 492.111 396.026 492.126 396.123C492.584 399.329 492.713 402.572 492.518 405.8C492.186 411.269 491.36 419.055 487.606 423.579C485.234 426.445 482.84 429.325 479.88 431.704C476.512 434.407 472.506 436.39 468.937 438.875C466.359 440.675 464.449 443.025 462.357 445.242C461.602 438.741 466.179 431.238 469.833 425.852C473.72 420.127 478.32 414.798 481.932 408.926C486.003 402.315 488.778 395.063 490.092 387.601C489.723 389.699 491.624 393.459 492.075 395.823Z" fill="#FCCD41"/>
<path d="M469.392 447.62C470.356 446.674 471.218 445.877 471.636 445.418C475.154 441.507 479.602 438.388 483.664 434.964C491.754 428.146 498.493 420.043 503.475 411.142C502.301 413.238 502.979 417.862 502.43 420.325C501.689 423.65 500.562 426.903 499.074 430.023C495.838 436.799 492.012 441.592 484.824 445.305C480.215 447.683 475.168 449.349 470.702 451.961C469.532 452.645 466.266 455.893 465.312 454.375C464.342 452.836 467.143 449.815 469.392 447.619V447.62Z" fill="#FCCD41"/>
<path d="M480.592 454.333C492.613 447.423 504.633 440.519 516.655 433.609C513.49 438.995 509.34 443.907 504.468 448.143C500.041 451.997 498.007 456.782 492.072 459.38C487.851 461.229 483.189 462.076 478.636 463.114C477.079 463.468 475.515 463.855 473.984 464.314H468.301C471.523 460.199 475.518 457.247 480.592 454.333Z" fill="#FCCD41"/>
<path d="M502.787 464.313C508.982 460.106 514.806 455.46 520.182 450.429C520.709 452.109 520.029 453.881 519.357 455.518C518.143 458.48 516.895 461.488 515.327 464.313H502.787V464.313Z" fill="#FCCD41"/>
<path d="M440.781 454.664C439.748 454.608 438.716 454.565 437.688 454.509C424.739 453.81 411.893 455.328 399.182 452.031C396.742 451.396 394.339 450.641 391.856 450.161C393.942 450.563 397.878 455.779 399.591 457.177C402.395 459.464 405.415 461.575 408.777 463.163C409.686 463.593 410.594 463.975 411.503 464.313H466.055C464.04 460.635 459.074 457.86 455.181 456.641C450.579 455.2 445.671 454.897 440.781 454.664H440.781Z" fill="#FCCD41"/>
<path d="M429.729 434.865C421.772 433.736 413.927 433.559 405.992 432.536C401.67 431.978 397.319 431.611 392.957 431.428C391.255 431.35 381.275 432.282 380.456 431.4C385.347 436.658 392.088 440.505 399.468 442.255C408.318 444.359 417.653 443.462 426.794 443.039C437.213 442.559 448.578 443.265 457.899 447.867C456.696 447.274 455.801 444.027 454.455 442.948C452.508 441.381 449.693 440.258 447.336 439.291C441.774 437.005 435.751 435.72 429.729 434.866V434.865Z" fill="#FCCD41"/>
<path d="M431.439 421.779C425.364 420.127 419.078 419.09 413.155 417.043C408.504 415.433 404.413 412.652 399.788 411.114C396.233 409.928 392.878 408.798 389.382 407.391C385.256 405.734 380.966 404.399 376.581 403.409C374.302 402.893 371.995 402.47 369.673 402.144C368.327 401.954 364.789 402.188 363.746 401.52C369.863 405.437 373.888 411.431 379.385 416.034C387.487 422.81 398.885 426.297 409.917 425.379C421.269 424.433 433.446 425.514 443.828 430.073C446.284 431.153 448.684 432.43 450.525 434.245C450.145 432.939 449.996 430.504 449.089 429.438C448.129 428.308 445.759 427.927 444.425 427.221C440.181 424.991 436.19 423.078 431.439 421.779H431.439Z" fill="#FCCD41"/>
<path d="M441.132 417.459C433.513 407.831 421.852 401.495 410.273 395.88C398.696 390.264 386.638 384.953 377.315 376.62C374.655 374.242 372.314 371.717 369.301 369.731C367.272 368.393 361.33 366.329 360.17 364.533C364.737 371.608 369.304 378.683 373.871 385.758C376.319 389.549 378.822 393.405 382.42 396.368C387.883 400.866 395.351 402.874 402.687 403.843C409.765 404.779 417.965 404.162 424.78 406.188C427.853 407.101 430.754 409.229 433.227 411.043C434.508 411.982 440.551 415.715 440.631 417.149C440.55 415.702 439.889 414.283 438.797 413.217L441.132 417.459H441.132Z" fill="#FCCD41"/>
<path d="M420.148 371.69C417.476 361.794 416.003 351.615 416.023 341.429C424.676 354.075 433.557 367.316 435.023 382.094C435.935 391.292 434.392 400.386 437.775 409.293C437.578 408.777 434.835 407.425 434.242 406.85C433.233 405.872 432.351 404.714 431.398 403.702C429.06 401.218 427.143 398.721 425.534 395.771C422.121 389.511 420.128 382.732 417.163 376.309C409.12 358.893 393.937 344.544 376.025 334.682C371.555 332.221 366.772 329.979 361.567 329.411C365.815 336.364 370.062 343.315 374.309 350.268C377.755 355.907 381.213 361.563 385.394 366.787C388.852 371.107 392.784 375.104 396.78 379.033C406.274 388.366 416.226 397.402 427.509 404.964C428.675 405.746 430.664 406.363 431.297 405.188C431.813 404.232 429.804 398.375 429.533 397.048C429.062 394.761 427.939 393.01 426.978 390.862C424.641 385.638 422.66 380.285 421.044 374.847C420.733 373.799 420.434 372.746 420.148 371.691L420.148 371.69Z" fill="#FCCD41"/>
<path d="M1519.28 464.313C1518.77 462.291 1518.19 460.228 1517.54 458.121C1516.51 454.801 1515.34 451.424 1514.2 448.159C1510.66 437.946 1506.98 427.389 1507.1 416.482C1507.17 409.618 1508.77 402.799 1510.3 396.202C1512.15 388.293 1514.05 380.114 1513.22 372.072C1513.15 371.359 1513.74 370.728 1514.53 370.662C1515.33 370.592 1516.02 371.12 1516.11 371.834C1516.98 380.263 1515.02 388.635 1513.13 396.733C1511.63 403.206 1510.06 409.898 1509.99 416.511C1509.87 427.004 1513.48 437.365 1516.96 447.389C1518.11 450.674 1519.29 454.072 1520.33 457.434C1521.05 459.778 1521.69 462.07 1522.24 464.313H1519.28H1519.28Z" fill="#BBD880"/>
<path fill-rule="evenodd" clip-rule="evenodd" d="M1512.35 379.841C1508.08 379.872 1503.37 383.763 1503.82 387.748C1503.95 388.884 1504.37 391.163 1505.7 391.797C1507.35 392.595 1508.7 391.01 1509.42 389.912C1509.69 389.512 1510.13 388.668 1510.13 388.668C1510.13 388.668 1510.36 389.425 1510.49 389.79C1510.71 390.37 1511.01 391.449 1511.63 391.95C1512.41 392.614 1513.39 392.051 1513.71 391.271C1513.95 390.72 1514.07 390.125 1514.16 389.542C1514.23 389.156 1514.18 388.379 1514.18 388.379C1514.18 388.379 1514.43 388.548 1514.52 388.654C1514.62 388.775 1514.66 388.932 1514.77 389.052C1515.19 389.528 1515.6 390.006 1516.08 390.432C1517.18 391.404 1519.17 392.039 1520.26 390.66C1520.56 390.279 1520.57 389.369 1520.53 388.945C1520.27 386.445 1519.16 384.973 1517.38 382.964C1516.86 382.387 1516.26 381.886 1515.68 381.365C1515.47 381.19 1515.27 381.021 1515.02 380.889C1514.9 380.809 1514.53 380.609 1514.58 380.741L1512.35 379.841L1512.35 379.841Z" fill="#009679"/>
<path fill-rule="evenodd" clip-rule="evenodd" d="M1484.98 370.843C1471.13 354.819 1460.79 331.457 1461.77 310.701C1462.63 292.4 1474.81 271.512 1494.93 265.496C1513.35 259.991 1529.96 263.189 1541.8 274.035C1560.4 291.084 1567.3 306.166 1561.21 332.162C1557.71 347.091 1544.87 382.952 1511.96 383.624C1501.78 383.837 1490.89 377.682 1484.98 370.843L1484.98 370.843Z" fill="#BBD880"/>
<path d="M1536.62 283.457C1537.26 279.615 1532.33 273.776 1527.57 274.806C1522.36 275.93 1522.71 282.656 1525.26 285.419C1526.29 286.544 1527.51 287.61 1529.06 288.063C1532.35 289.033 1536.11 286.536 1536.62 283.457H1536.62Z" fill="#009679"/>
<path d="M1553.07 303.527C1555.6 299.96 1552.62 293.711 1547.48 293.884C1541.96 294.07 1542.09 300.026 1544.63 302.966C1546.21 304.793 1549.09 306.103 1551.35 305.02C1552.07 304.681 1552.64 304.138 1553.07 303.527H1553.07Z" fill="#009679"/>
<path d="M1548.14 322.522C1549.64 319.018 1545.45 315.132 1541.74 314.288C1537.03 313.215 1531.84 314.736 1529.51 318.783C1528.43 320.655 1528.08 322.929 1528.94 324.892C1529.5 326.192 1530.55 327.281 1531.69 328.232C1533.01 329.333 1534.54 330.31 1536.29 330.678C1538.93 331.235 1541.79 330.287 1543.82 328.659C1545.85 327.032 1547.17 324.804 1548.14 322.522H1548.14Z" fill="#009679"/>
<path d="M1836.81 31.8371C1837.02 31.8259 1837.21 31.8221 1837.43 31.8296C1843.61 32.0222 1849.66 38.4601 1852.95 42.5895C1855.02 45.1758 1857.08 47.762 1859.15 50.3473C1859.36 50.6108 1864 56.5661 1863.3 56.5576C1852.3 56.4237 1841.29 56.289 1830.3 56.1548C1812.65 55.9397 1794.99 55.7247 1777.34 55.509C1774.25 55.4714 1759.64 57.0762 1759.84 53.0648C1759.97 50.4796 1763.95 46.2349 1765.48 44.08C1767.58 41.1383 1769.87 38.3004 1772.31 35.5866C1776.66 30.7715 1780.8 25.4056 1788.05 24.0155C1794.18 22.8441 1800.34 25.8088 1805.2 29.3525C1809.95 32.8229 1814.46 36.0353 1819.48 39.1516C1820 39.4786 1820.56 39.818 1821.19 39.8401C1821.94 39.8638 1822.61 39.4541 1823.22 39.0614C1825.41 37.634 1827.6 36.2072 1829.8 34.7811C1831.92 33.4059 1834.24 31.9717 1836.81 31.8374L1836.81 31.8371Z" fill="#D0DEF2"/>
<path d="M147.777 -9.21213C148.025 -9.22502 148.275 -9.22874 148.526 -9.22127C155.931 -8.9893 163.166 -1.27932 167.116 3.66839C169.59 6.76507 172.064 9.86347 174.538 12.9602C174.79 13.2762 180.342 20.409 179.519 20.3999C166.339 20.2381 153.159 20.0774 139.978 19.9176C118.834 19.6589 97.6904 19.4014 76.5454 19.1427C72.8445 19.0982 55.3463 21.0198 55.5864 16.2162C55.7407 13.1206 60.5016 8.03413 62.3428 5.45464C64.8583 1.92928 67.5916 -1.46888 70.5275 -4.72055C75.735 -10.4869 80.6949 -16.9147 89.3863 -18.5788C96.7175 -19.9839 104.099 -16.4311 109.914 -12.1871C115.61 -8.02988 121.009 -4.18301 127.01 -0.44908C127.64 -0.0577127 128.316 0.348222 129.081 0.373996C129.975 0.404519 130.772 -0.0875808 131.496 -0.558307C134.126 -2.26723 136.756 -3.97546 139.387 -5.68438C141.923 -7.33125 144.698 -9.04902 147.777 -9.2118L147.777 -9.21213Z" fill="#D0DEF2"/>
<path d="M412.64 205.656C412.486 205.648 412.327 205.646 412.171 205.65C407.522 205.796 402.979 210.636 400.499 213.742C398.945 215.687 397.392 217.633 395.839 219.576C395.68 219.775 392.194 224.252 392.711 224.247C400.987 224.146 409.261 224.045 417.536 223.943C430.811 223.782 444.086 223.62 457.363 223.458C459.685 223.429 470.671 224.636 470.521 221.62C470.424 219.677 467.434 216.484 466.278 214.864C464.699 212.651 462.984 210.518 461.141 208.476C457.872 204.855 454.756 200.82 449.3 199.775C444.698 198.894 440.062 201.123 436.412 203.788C432.836 206.398 429.447 208.812 425.678 211.157C425.283 211.402 424.859 211.658 424.379 211.674C423.818 211.693 423.317 211.384 422.862 211.088C421.211 210.017 419.56 208.943 417.908 207.87C416.316 206.836 414.574 205.758 412.64 205.656Z" fill="#D0DEF2"/>
<path d="M1360.36 343.452C1360.53 343.441 1360.7 343.44 1360.87 343.445C1366 343.606 1371 348.943 1373.75 352.367C1375.46 354.511 1377.17 356.655 1378.88 358.8C1379.06 359.018 1382.9 363.955 1382.33 363.949C1373.21 363.837 1364.08 363.726 1354.95 363.615C1340.32 363.436 1325.69 363.258 1311.05 363.08C1308.49 363.047 1296.37 364.379 1296.53 361.054C1296.64 358.91 1299.94 355.389 1301.21 353.602C1302.96 351.165 1304.85 348.811 1306.88 346.559C1310.49 342.567 1313.92 338.118 1319.94 336.967C1325.01 335.994 1330.12 338.453 1334.14 341.39C1338.09 344.269 1341.82 346.932 1345.98 349.517C1346.42 349.787 1346.88 350.069 1347.41 350.087C1348.03 350.107 1348.58 349.766 1349.09 349.442C1350.91 348.258 1352.73 347.075 1354.55 345.892C1356.3 344.751 1358.23 343.563 1360.36 343.451V343.452Z" fill="#D0DEF2"/>
<path d="M1471.07 177.023L1473.45 178.73L1475.14 174.637L1471.07 177.023L1471.07 177.023ZM1462.82 172.464L1464.21 179.762L1469.03 176.935L1462.82 172.464ZM1473.98 180.502L1472.19 184.85L1479.62 184.56L1473.98 180.502V180.502ZM1464.43 180.918L1465.24 185.121L1470.88 184.901L1473 179.792L1470.01 177.644L1464.43 180.918ZM1463.34 181.56L1456.7 185.454L1464.02 185.169L1463.34 181.56ZM1465.44 186.191L1466.99 194.305L1470.43 185.995L1465.44 186.191V186.191ZM1466.71 196.905C1466.44 196.881 1466.23 196.699 1466.18 196.46L1464.23 186.238L1454.57 186.615C1454.3 186.63 1454.05 186.473 1453.98 186.243C1453.89 186.013 1453.99 185.759 1454.22 185.628L1463.12 180.406L1461.37 171.247C1461.33 171.024 1461.44 170.805 1461.66 170.692C1461.87 170.575 1462.14 170.594 1462.33 170.736L1470.08 176.316L1476 172.841C1476.23 172.714 1476.5 172.726 1476.71 172.87C1476.91 173.015 1476.99 173.261 1476.89 173.478L1474.43 179.441L1481.61 184.616C1481.81 184.757 1481.89 184.99 1481.81 185.203C1481.73 185.416 1481.51 185.564 1481.27 185.573L1471.73 185.946L1467.33 196.556C1467.24 196.783 1466.99 196.926 1466.71 196.904L1466.71 196.905Z" fill="#D0DEF2"/>
<path d="M48.0143 241.28L50.4031 243L52.1119 238.875L48.0147 241.28L48.0143 241.28ZM39.7022 236.686L41.1047 244.04L45.9591 241.191L39.7022 236.686ZM50.9514 244.786L49.1363 249.167L56.6286 248.874L50.9518 244.786L50.9514 244.786ZM41.3263 245.205L42.1344 249.439L47.8249 249.217L49.958 244.071L46.9502 241.904L41.3263 245.205V245.205ZM40.2237 245.852L33.5398 249.775L40.916 249.488L40.2237 245.852ZM42.3394 250.517L43.8985 258.693L47.3677 250.321L42.3394 250.517ZM43.6255 261.312C43.3521 261.29 43.1313 261.105 43.0855 260.865L41.1214 250.565L31.3923 250.944C31.1182 250.959 30.8746 250.803 30.7915 250.57C30.7079 250.337 30.8077 250.083 31.0361 249.951L40.0017 244.689L38.2418 235.459C38.1998 235.234 38.3148 235.014 38.5314 234.899C38.7485 234.783 39.0208 234.802 39.2159 234.944L47.0232 240.566L52.9877 237.065C53.2063 236.937 53.4914 236.95 53.6956 237.095C53.9006 237.241 53.977 237.487 53.8862 237.707L51.3953 243.715L58.6381 248.931C58.8343 249.073 58.9126 249.308 58.8339 249.521C58.7557 249.736 58.5367 249.885 58.2856 249.894L48.6795 250.27L44.2487 260.961C44.153 261.191 43.8978 261.335 43.6259 261.311L43.6255 261.312Z" fill="#D0DEF2"/>
<path d="M1856.06 168.048L1855.54 171.38L1861.45 170.403L1856.06 168.048V168.048ZM1856.23 157.329L1848.49 163.265L1854.88 166.054L1856.23 157.329ZM1853.8 173.018L1847.52 174.055L1852.57 180.935L1853.8 173.017V173.018ZM1847.26 164.207L1842.81 167.625L1846.64 172.851L1854.01 171.633L1854.67 167.437L1847.26 164.207ZM1845.81 163.572L1837.02 159.733L1841.99 166.508L1845.81 163.573V163.572ZM1841.67 168.495L1833.06 175.095L1845.07 173.113L1841.67 168.495ZM1829.82 176.482C1829.68 176.21 1829.76 175.885 1830.01 175.691L1840.85 167.376L1834.3 158.442C1834.11 158.193 1834.14 157.864 1834.36 157.641C1834.59 157.415 1834.95 157.35 1835.24 157.482L1847.04 162.633L1856.75 155.18C1856.99 155.002 1857.31 154.971 1857.59 155.103C1857.87 155.234 1858.01 155.504 1857.97 155.778L1856.28 166.665L1864.12 170.092C1864.41 170.218 1864.57 170.495 1864.53 170.778C1864.49 171.063 1864.24 171.29 1863.94 171.341L1855.33 172.764L1853.76 182.865C1853.71 183.139 1853.49 183.36 1853.19 183.421C1852.89 183.482 1852.58 183.369 1852.42 183.137L1845.93 174.317L1830.63 176.848C1830.3 176.902 1829.97 176.751 1829.82 176.481V176.482Z" fill="#D0DEF2"/>
<path d="M574.828 338.009L574.306 341.365L580.259 340.38L574.828 338.009V338.009ZM574.998 327.208L567.199 333.19L573.635 336.001L574.998 327.208V327.208ZM572.543 343.016L566.222 344.062L571.305 350.994L572.543 343.016V343.016ZM565.962 334.138L561.472 337.582L565.333 342.848L572.761 341.621L573.418 337.394L565.962 334.139V334.138ZM564.501 333.499L555.641 329.63L560.645 336.456L564.501 333.499ZM560.329 338.458L551.658 345.11L563.741 343.111L560.329 338.458ZM548.391 346.507C548.246 346.233 548.325 345.906 548.579 345.71L559.503 337.332L552.903 328.33C552.711 328.078 552.744 327.748 552.965 327.521C553.188 327.295 553.551 327.229 553.852 327.362L565.736 332.552L575.523 325.044C575.762 324.864 576.096 324.832 576.367 324.966C576.642 325.099 576.792 325.369 576.747 325.646L575.044 336.616L582.95 340.069C583.238 340.196 583.405 340.476 583.363 340.759C583.32 341.047 583.075 341.277 582.759 341.328L574.088 342.761L572.507 352.939C572.465 353.216 572.237 353.439 571.933 353.5C571.631 353.561 571.316 353.447 571.146 353.213L564.629 344.326L549.2 346.877C548.868 346.93 548.536 346.778 548.391 346.507H548.391Z" fill="#D0DEF2"/>
<path d="M1543.19 111.61C1543.11 111.593 1543.06 111.578 1542.99 111.56L1539.34 110.918L1533.38 109.856C1533.02 109.786 1532.68 109.648 1532.39 109.459C1532.01 109.213 1531.69 108.874 1531.5 108.473L1530.86 107.122L1528.96 103.175L1527.73 100.621L1527.63 100.415C1526.77 98.6336 1524.02 98.505 1522.95 100.196L1518.69 106.998L1518.16 107.849C1517.74 108.532 1516.98 108.968 1516.12 109.049L1515.74 109.086L1506.38 109.848C1504.23 110.03 1503.22 112.358 1504.7 113.776L1506.55 115.575L1508.59 117.546L1511.35 120.225C1511.49 120.353 1511.61 120.506 1511.69 120.659C1512.02 121.16 1512.12 121.757 1511.98 122.331L1511.51 124.197L1509.83 130.891C1509.75 131.198 1509.73 131.48 1509.79 131.767C1509.94 132.757 1510.81 133.541 1511.88 133.712C1512.39 133.804 1512.94 133.762 1513.46 133.543L1522.36 129.871C1523.13 129.544 1524.04 129.586 1524.78 129.986L1525.78 130.518L1528.54 131.982L1533.19 134.467C1535.06 135.457 1537.38 134.096 1537.12 132.168L1536.38 126.455L1535.98 123.455L1535.97 123.306C1535.93 122.602 1536.26 121.889 1536.85 121.419L1544.21 115.625C1545.79 114.391 1545.15 112.094 1543.19 111.61L1543.19 111.61Z" fill="#BBD880"/>
<path d="M327.934 124.706C327.992 124.689 328.052 124.674 328.127 124.656L331.802 124.008L337.803 122.939C338.163 122.868 338.518 122.729 338.81 122.539C339.189 122.291 339.503 121.95 339.707 121.545L340.357 120.184L342.261 116.206L343.506 113.634L343.599 113.426C344.466 111.631 347.246 111.501 348.316 113.205L352.609 120.058L353.144 120.917C353.562 121.604 354.331 122.044 355.2 122.125L355.581 122.162L365.007 122.931C367.185 123.113 368.185 125.459 366.708 126.888L364.843 128.701L362.791 130.687L360.008 133.386C359.863 133.515 359.751 133.67 359.67 133.824C359.335 134.328 359.234 134.931 359.374 135.509L359.846 137.389L361.542 144.134C361.621 144.443 361.637 144.727 361.578 145.016C361.425 146.014 360.546 146.804 359.464 146.976C358.955 147.069 358.407 147.026 357.878 146.806L348.919 143.106C348.141 142.777 347.219 142.819 346.469 143.222L345.47 143.758L342.691 145.233L338.001 147.737C336.121 148.735 333.782 147.364 334.032 145.421L334.789 139.664L335.189 136.641L335.195 136.491C335.245 135.782 334.915 135.063 334.311 134.589L326.894 128.752C325.307 127.508 325.944 125.193 327.932 124.706L327.934 124.706Z" fill="#BBD880"/>
</g>
<defs>
<clipPath id="clip0_109_1083">
<rect width="1915" height="464" fill="white"/>
</clipPath>
<clipPath id="clip1_109_1083">
<rect width="1915" height="850.001" fill="white" transform="translate(0 -386)"/>
</clipPath>
</defs>
</svg>
