<svg width="1915" height="851" viewBox="0 0 1915 851" fill="none" xmlns="http://www.w3.org/2000/svg">
<rect width="1915" height="850" fill="#FBF7EC"/>
<g clip-path="url(#clip0_25_490)">
<path d="M35.0037 850V0.000335693" stroke="white" stroke-width="0.999231" stroke-miterlimit="22.9256"/>
<path d="M80.0032 850V0.000335693" stroke="white" stroke-width="0.999231" stroke-miterlimit="22.9256"/>
<path d="M125.003 850V0.000335693" stroke="white" stroke-width="0.999231" stroke-miterlimit="22.9256"/>
<path d="M170.004 850V0.000335693" stroke="white" stroke-width="0.999231" stroke-miterlimit="22.9256"/>
<path d="M215.003 850V0.000335693" stroke="white" stroke-width="0.999231" stroke-miterlimit="22.9256"/>
<path d="M260.003 850V0.000335693" stroke="white" stroke-width="0.999231" stroke-miterlimit="22.9256"/>
<path d="M305.002 850V0.000335693" stroke="white" stroke-width="0.999231" stroke-miterlimit="22.9256"/>
<path d="M350.003 850V0.000335693" stroke="white" stroke-width="0.999231" stroke-miterlimit="22.9256"/>
<path d="M395.003 850V0.000335693" stroke="white" stroke-width="0.999231" stroke-miterlimit="22.9256"/>
<path d="M440.002 850V0.000335693" stroke="white" stroke-width="0.999231" stroke-miterlimit="22.9256"/>
<path d="M485.001 850V0.000335693" stroke="white" stroke-width="0.999231" stroke-miterlimit="22.9256"/>
<path d="M530.001 850V0.000335693" stroke="white" stroke-width="0.999231" stroke-miterlimit="22.9256"/>
<path d="M575.002 850V0.000335693" stroke="white" stroke-width="0.999231" stroke-miterlimit="22.9256"/>
<path d="M620.002 850V0.000335693" stroke="white" stroke-width="0.999231" stroke-miterlimit="22.9256"/>
<path d="M665.001 850V0.000335693" stroke="white" stroke-width="0.999231" stroke-miterlimit="22.9256"/>
<path d="M710 850V0.000335693" stroke="white" stroke-width="0.999231" stroke-miterlimit="22.9256"/>
<path d="M755 850V0.000335693" stroke="white" stroke-width="0.999231" stroke-miterlimit="22.9256"/>
<path d="M800.001 850V0.000335693" stroke="white" stroke-width="0.999231" stroke-miterlimit="22.9256"/>
<path d="M845 850V0.000335693" stroke="white" stroke-width="0.999231" stroke-miterlimit="22.9256"/>
<path d="M890 850V0.000335693" stroke="white" stroke-width="0.999231" stroke-miterlimit="22.9256"/>
<path d="M934.999 850V0.000335693" stroke="white" stroke-width="0.999231" stroke-miterlimit="22.9256"/>
<path d="M980 850V0.000335693" stroke="white" stroke-width="0.999231" stroke-miterlimit="22.9256"/>
<path d="M1025 850V0.000335693" stroke="white" stroke-width="0.999231" stroke-miterlimit="22.9256"/>
<path d="M1070 850V0.000335693" stroke="white" stroke-width="0.999231" stroke-miterlimit="22.9256"/>
<path d="M1115 850V0.000335693" stroke="white" stroke-width="0.999231" stroke-miterlimit="22.9256"/>
<path d="M1160 850V0.000335693" stroke="white" stroke-width="0.999231" stroke-miterlimit="22.9256"/>
<path d="M1205 850V0.000335693" stroke="white" stroke-width="0.999231" stroke-miterlimit="22.9256"/>
<path d="M1250 850V0.000335693" stroke="white" stroke-width="0.999231" stroke-miterlimit="22.9256"/>
<path d="M1295 850V0.000335693" stroke="white" stroke-width="0.999231" stroke-miterlimit="22.9256"/>
<path d="M1340 850V0.000335693" stroke="white" stroke-width="0.999231" stroke-miterlimit="22.9256"/>
<path d="M1385 850V0.000335693" stroke="white" stroke-width="0.999231" stroke-miterlimit="22.9256"/>
<path d="M1430 850V0.000335693" stroke="white" stroke-width="0.999231" stroke-miterlimit="22.9256"/>
<path d="M1475 850V0.000335693" stroke="white" stroke-width="0.999231" stroke-miterlimit="22.9256"/>
<path d="M1520 850V0.000335693" stroke="white" stroke-width="0.999231" stroke-miterlimit="22.9256"/>
<path d="M1565 850V0.000335693" stroke="white" stroke-width="0.999231" stroke-miterlimit="22.9256"/>
<path d="M1610 850V0.000335693" stroke="white" stroke-width="0.999231" stroke-miterlimit="22.9256"/>
<path d="M1655 850V0.000335693" stroke="white" stroke-width="0.999231" stroke-miterlimit="22.9256"/>
<path d="M1700 850V0.000335693" stroke="white" stroke-width="0.999231" stroke-miterlimit="22.9256"/>
<path d="M1745 850V0.000335693" stroke="white" stroke-width="0.999231" stroke-miterlimit="22.9256"/>
<path d="M1790 850V0.000335693" stroke="white" stroke-width="0.999231" stroke-miterlimit="22.9256"/>
<path d="M1835 850V0.000335693" stroke="white" stroke-width="0.999231" stroke-miterlimit="22.9256"/>
<path d="M1880 850V0.000335693" stroke="white" stroke-width="0.999231" stroke-miterlimit="22.9256"/>
<path d="M0 42.5026H1915" stroke="white" stroke-width="0.999231" stroke-miterlimit="22.9256"/>
<path d="M0 87.502H1915" stroke="white" stroke-width="0.999231" stroke-miterlimit="22.9256"/>
<path d="M0 132.501H1915" stroke="white" stroke-width="0.999231" stroke-miterlimit="22.9256"/>
<path d="M0 177.501H1915" stroke="white" stroke-width="0.999231" stroke-miterlimit="22.9256"/>
<path d="M0 222.5H1915" stroke="white" stroke-width="0.999231" stroke-miterlimit="22.9256"/>
<path d="M0 267.501H1915" stroke="white" stroke-width="0.999231" stroke-miterlimit="22.9256"/>
<path d="M0 312.501H1915" stroke="white" stroke-width="0.999231" stroke-miterlimit="22.9256"/>
<path d="M0 357.5H1915" stroke="white" stroke-width="0.999231" stroke-miterlimit="22.9256"/>
<path d="M0 402.5H1915" stroke="white" stroke-width="0.999231" stroke-miterlimit="22.9256"/>
<path d="M0 447.501H1915" stroke="white" stroke-width="0.999231" stroke-miterlimit="22.9256"/>
<path d="M0 492.5H1915" stroke="white" stroke-width="0.999231" stroke-miterlimit="22.9256"/>
<path d="M0 537.5H1915" stroke="white" stroke-width="0.999231" stroke-miterlimit="22.9256"/>
<path d="M0 582.499H1915" stroke="white" stroke-width="0.999231" stroke-miterlimit="22.9256"/>
<path d="M0 627.499H1915" stroke="white" stroke-width="0.999231" stroke-miterlimit="22.9256"/>
<path d="M0 672.5H1915" stroke="white" stroke-width="0.999231" stroke-miterlimit="22.9256"/>
<path d="M0 717.499H1915" stroke="white" stroke-width="0.999231" stroke-miterlimit="22.9256"/>
<path d="M0 762.499H1915" stroke="white" stroke-width="0.999231" stroke-miterlimit="22.9256"/>
<path d="M0 807.498H1915" stroke="white" stroke-width="0.999231" stroke-miterlimit="22.9256"/>
</g>
<path fill-rule="evenodd" clip-rule="evenodd" d="M203.596 819.799C203.384 828.23 204.627 840.994 204.66 850.313H152.668C153.042 846.496 153.529 842.684 153.739 838.857C153.99 834.17 153.866 829.476 153.949 824.783C153.963 824.035 150.571 810.01 174.303 806.685C189.59 804.547 204 803.904 203.597 819.8L203.596 819.799Z" fill="#A6C861"/>
<path fill-rule="evenodd" clip-rule="evenodd" d="M12.0694 741.372C13.5404 742.884 22.3672 748.464 24.3287 748.896C26.4996 749.375 29.56 751.794 31.4545 750.297C33.6244 748.581 34.0044 743.552 34.3693 741.194C35.0969 736.481 36.0808 727.016 29.0945 725.102C27.2567 724.601 24.7688 725.726 23.2884 726.411C19.263 728.277 15.899 730.217 12.0433 732.337C11.3767 732.703 8.89825 734.889 8.89825 734.889C6.55448 736.79 11.1433 740.42 12.0694 741.372Z" fill="#009679"/>
<path fill-rule="evenodd" clip-rule="evenodd" d="M93.3494 753.563C95.4988 753.011 104.884 748.218 106.153 746.809C107.561 745.25 109.219 742.952 108.511 740.78C107.701 738.289 104.874 736.684 102.649 735.385C98.2015 732.79 89.0672 727.968 84.1668 732.826C82.8799 734.105 82.9571 736.602 83.0183 738.095C83.1908 742.156 83.8631 745.576 84.6864 749.564C85.0112 751.127 85.4582 753.381 85.4582 753.381C86.3793 756.091 91.9945 753.909 93.3498 753.563L93.3494 753.563Z" fill="#009679"/>
<path fill-rule="evenodd" clip-rule="evenodd" d="M49.6738 753.942C51.6599 754.864 62.1528 757.157 64.1544 756.914C66.3699 756.646 69.667 758.274 70.8159 756.258C72.1341 753.948 70.9739 748.762 70.3496 746.448C69.1013 741.823 66.1495 732.692 58.8678 733.209C56.9529 733.347 55.0973 735.211 53.9999 736.334C51.0167 739.392 48.6793 742.304 45.9581 745.543C45.4881 746.103 44.0746 748.951 44.0746 748.951C42.6705 751.49 48.4237 753.361 49.6742 753.942L49.6738 753.942Z" fill="#009679"/>
<path fill-rule="evenodd" clip-rule="evenodd" d="M127.048 729.645C128.774 728.368 135.237 720.607 135.772 718.861C136.365 716.928 136.86 714.227 135.242 712.489C133.388 710.497 130.081 710.041 127.463 709.649C122.23 708.866 111.706 707.725 109.383 713.936C108.773 715.57 109.958 717.831 110.68 719.176C112.65 722.836 114.721 725.907 116.977 729.421C117.368 730.028 119.735 732.309 119.735 732.309C121.789 734.464 125.961 730.45 127.048 729.645Z" fill="#009679"/>
<path fill-rule="evenodd" clip-rule="evenodd" d="M150.994 692.579C151.934 690.76 154.026 681.258 153.667 679.475C153.271 677.501 152.416 674.873 150.12 673.933C147.489 672.854 144.285 673.723 141.736 674.384C136.639 675.706 126.598 678.752 127.493 685.253C127.73 686.964 129.889 688.543 131.189 689.479C134.729 692.016 138.074 693.982 141.801 696.278C142.446 696.674 145.68 697.816 145.68 697.816C148.571 698.963 150.4 693.725 150.995 692.579H150.994Z" fill="#009679"/>
<path fill-rule="evenodd" clip-rule="evenodd" d="M128.198 587.004C129.537 585.397 133.776 576.489 133.835 574.678C133.905 572.674 133.673 569.945 131.644 568.599C129.319 567.054 125.985 567.311 123.337 567.485C118.046 567.832 107.519 568.95 106.895 575.477C106.734 577.194 108.48 579.14 109.536 580.295C112.414 583.435 115.234 585.979 118.351 588.917C118.89 589.424 121.792 591.141 121.792 591.141C124.354 592.799 127.352 588.016 128.197 587.004L128.198 587.004Z" fill="#009679"/>
<path fill-rule="evenodd" clip-rule="evenodd" d="M147.165 558.015C149.386 557.782 159.511 554.412 161.017 553.206C162.688 551.872 164.737 549.843 164.43 547.597C164.08 545.021 161.579 543.028 159.618 541.424C155.698 538.219 147.551 532.136 141.84 536.22C140.339 537.295 139.966 539.772 139.757 541.253C139.194 545.286 139.076 548.872 138.843 552.922C138.803 553.622 139.37 558.412 140.755 559.259C142.143 560.108 145.765 558.162 147.165 558.015Z" fill="#009679"/>
<path fill-rule="evenodd" clip-rule="evenodd" d="M187.85 544.58C190.074 544.784 200.771 543.456 202.533 542.57C204.485 541.59 206.975 540.007 207.217 537.754C207.496 535.172 205.535 532.74 204.006 530.794C200.949 526.905 194.46 519.388 187.9 522.268C186.176 523.027 185.215 525.373 184.654 526.779C183.134 530.608 182.154 534.085 180.951 537.995C180.743 538.671 180.142 543.457 181.29 544.554C182.442 545.651 186.447 544.452 187.85 544.58Z" fill="#009679"/>
<path fill-rule="evenodd" clip-rule="evenodd" d="M128.362 620.492C128.689 618.509 127.696 608.864 126.79 607.245C125.786 605.453 124.138 603.149 121.638 602.831C118.774 602.464 115.976 604.111 113.739 605.393C109.268 607.955 100.6 613.426 103.511 619.433C104.279 621.014 106.848 621.982 108.388 622.547C112.584 624.082 116.414 625.119 120.713 626.374C121.457 626.59 126.762 627.346 128.034 626.368C129.31 625.386 128.154 621.742 128.362 620.491V620.492Z" fill="#009679"/>
<path fill-rule="evenodd" clip-rule="evenodd" d="M145.958 651.174C145.364 649.241 140.11 640.779 138.552 639.627C136.827 638.35 134.281 636.84 131.851 637.456C129.066 638.157 127.249 640.677 125.78 642.659C122.844 646.623 117.379 654.769 122.748 659.21C124.163 660.377 126.948 660.331 128.613 660.29C133.143 660.175 138.148 659.67 142.549 658.739C146.456 657.913 151.122 656.339 151.85 654.982C152.576 653.623 146.332 652.393 145.958 651.174H145.958Z" fill="#009679"/>
<path fill-rule="evenodd" clip-rule="evenodd" d="M122.333 588.063C119.305 599.356 120.567 612.214 124.442 623.794C129.855 639.959 140.355 653.646 151.393 657.168C170.744 663.336 204.45 669.029 222.812 662.485C228.982 660.29 245.055 654.634 256.369 646.093C267.772 637.479 274.399 625.974 275.056 624.298C277.076 619.152 277.325 617.065 276.704 615.244C276.081 613.418 272.325 613.358 271.323 613.358C264.754 613.363 260.447 613.298 253.945 612.241C252.183 611.957 250.507 611.317 248.815 610.789C247.329 610.33 245.903 609.727 244.415 609.273C244.172 609.196 264.374 603.303 272.955 597.026C290.052 584.526 281.378 560.524 265.544 550.989C237.315 533.991 204.043 533.529 170.983 544.887C148.818 552.503 130.928 555.994 122.333 588.064V588.063Z" fill="#BBD880"/>
<path fill-rule="evenodd" clip-rule="evenodd" d="M169.493 634.041C179.951 634.542 191.032 630.767 201.049 636.308C214.042 643.489 214.649 644.102 226.985 652.296C240.502 661.274 251.718 678.272 255.633 686.195C262.193 699.459 265.461 710.713 267.572 724.806C269.761 739.43 267.13 762.894 255.183 780.149C237.02 806.375 225.621 814.414 197.841 828.249C164.438 844.885 125.426 845.429 89.2227 838.159C49.3985 830.17 13.9382 803.715 0 769.769V717.617C0.115714 717.493 0.232941 717.372 0.352058 717.252C8.52237 709.064 14.4888 722.769 20.2707 727.825C40.5222 745.539 72.4018 754.386 98.2556 741.708C115.775 733.125 128.077 715.472 131.805 710.483C137.673 702.636 144.668 686.859 145.41 683.227C148.512 667.989 144.605 663.259 135.492 643.98L169.493 634.041L169.493 634.041Z" fill="#BBD880"/>
<path fill-rule="evenodd" clip-rule="evenodd" d="M129.133 585.444C125.28 584.494 88.75 516.189 88.75 516.189C88.75 516.189 166.852 543.833 171.307 550.002C174.068 553.814 157.832 569.659 155.096 572.208C146.482 580.237 135.517 587.012 129.133 585.444V585.444Z" fill="#F08B6A"/>
<path fill-rule="evenodd" clip-rule="evenodd" d="M133.908 532.919C137.497 534.316 141.05 535.716 144.452 537.084C128.65 537.104 113.012 535.245 97.5034 532.354C96.6526 530.794 95.8346 529.301 95.0734 527.902C107.926 530.416 120.86 532.264 133.907 532.919H133.908ZM111.288 550.397C113.979 550.652 116.658 551.08 119.384 551C129.827 550.696 140.375 549.903 150.537 547.549C154.291 546.678 158.021 545.626 161.709 544.435C163.625 545.33 165.323 546.158 166.741 546.915C161.775 548.642 156.724 550.148 151.627 551.326C141.15 553.754 130.284 554.586 119.522 554.902C116.596 554.987 113.722 554.548 110.833 554.281C110.416 554.242 110 554.203 109.58 554.17C108.817 552.82 108.057 551.46 107.297 550.104C108.63 550.182 109.965 550.276 111.288 550.397V550.397ZM133.464 569.727C144.408 568.882 154.994 566.417 164.733 562.193C162.656 564.59 160.447 566.909 158.635 568.745C150.719 571.351 142.379 572.952 133.833 573.613C129.568 573.941 125.293 573.973 121.016 573.922C120.265 572.676 119.479 571.36 118.662 569.984C123.598 570.073 128.54 570.104 133.464 569.727V569.727Z" fill="#009679"/>
<path fill-rule="evenodd" clip-rule="evenodd" d="M82.1645 510.6C79.6494 509.692 74.1806 512.68 77.5586 515.922C78.2045 516.538 78.9767 517.06 79.7795 517.522C80.6417 518.016 81.6525 518.306 82.5301 518.772C83.3156 519.194 84.7684 520.186 84.7684 520.186C84.7684 520.186 84.5253 520.079 84.3997 520.023C84.0787 519.89 83.7731 519.715 83.4267 519.619C82.2556 519.288 81.1125 518.853 79.8676 518.748C78.2151 518.611 73.4704 518.719 74.021 521.489C74.6873 524.837 79.5768 526.806 83.2267 526.839C83.969 526.845 86.3544 526.293 86.3544 526.293C86.3544 526.293 85.4203 527.14 85.074 527.632C83.6336 529.704 82.8474 532.02 83.8132 534.228C85.2422 537.481 89.8886 538.884 91.931 534.796C92.8155 533.034 93.1373 529.223 93.1373 529.223C93.1373 529.223 93.3883 529.897 93.551 530.221C93.8675 530.86 94.1492 531.523 94.564 532.113C96.0846 534.261 98.1213 537.696 101.889 537.266C102.486 537.196 103.116 536.071 103.188 535.697C103.42 534.551 103.792 533.372 103.614 532.243C103.112 529.047 100.441 526.698 100.441 526.698C100.441 526.698 100.925 526.925 101.181 527.018C101.852 527.261 102.5 527.576 103.217 527.707C105.51 528.132 108.727 528.693 110.56 526.67C113.34 523.61 106.209 521.088 103.986 520.685C103.496 520.597 102.475 520.644 102.475 520.644C102.475 520.644 103.134 520.331 103.465 520.175C104.196 519.829 104.981 519.571 105.651 519.135C107.42 517.981 112.094 515.139 110.315 512.582C108.128 509.433 102.416 509.839 99.3586 512.276C98.3455 513.08 97.5938 514.098 96.7709 515.044C96.5262 515.324 96.1594 515.95 96.1594 515.95C96.1594 515.95 95.984 515.501 95.9571 515.266C95.8565 514.275 95.928 513.261 95.7771 512.279C95.5071 510.513 95.0583 502.774 90.2179 504.303C84.1702 506.204 87.3463 513.819 89.8228 516.64C89.8228 516.64 85.3954 511.77 82.1649 510.6L82.1645 510.6Z" fill="#FCCD41"/>
<path fill-rule="evenodd" clip-rule="evenodd" d="M22.9639 750.2C23.769 753.651 26.8611 756.231 30.2861 757.722C32.6907 758.768 36.5713 759.726 39.0716 758.376C43.0528 756.226 40.5638 750.788 38.0949 748.559C37.4879 748.013 32.6597 745.296 32.6597 745.296C28.8899 743.785 21.8514 745.434 22.9639 750.2V750.2Z" fill="#F08B6A"/>
<path fill-rule="evenodd" clip-rule="evenodd" d="M17.2959 732.839C15.9137 732.72 13.731 732.97 14.1115 734.701C14.1935 735.062 14.3036 735.423 14.451 735.769C15.0776 737.25 16.3777 738.508 17.6604 739.553C18.1667 739.967 19.0766 740.513 19.7535 740.656C20.9995 740.921 22.3105 739.878 22.5975 738.847C23.0403 737.279 21.8189 735.497 20.9356 734.498C20.0919 733.538 17.2959 732.839 17.2959 732.839Z" fill="#F08B6A"/>
<path fill-rule="evenodd" clip-rule="evenodd" d="M17.3548 756.481C20.0015 755.643 18.9155 752.398 17.48 751.005C16.4639 750.016 14.7214 748.536 12.9498 750.045C11.4924 751.286 13.9133 757.571 17.3548 756.48V756.481Z" fill="#F08B6A"/>
<path fill-rule="evenodd" clip-rule="evenodd" d="M222.336 607.707C223.845 608.787 225.009 610.203 225.481 611.874C226.251 614.599 225.063 617.531 223.093 619.715C215.648 627.965 202.262 628.023 192.964 622.36C191.084 621.215 189.342 619.805 188.272 618.006C187.202 616.206 186.886 613.969 187.834 612.116C188.948 609.938 191.518 608.687 194.025 607.859C198.519 606.375 203.313 605.773 208.083 605.38C211.502 605.098 215.02 604.928 218.304 605.823C219.751 606.218 221.149 606.859 222.336 607.708V607.707Z" fill="#F08B6A"/>
<path d="M237.295 584.026C237.295 593.504 228.727 601.188 218.16 601.188C207.591 601.188 199.024 593.505 199.024 584.026C199.024 574.549 207.591 566.866 218.16 566.866C228.727 566.866 237.295 574.549 237.295 584.026Z" fill="#FEFEFE"/>
<path d="M209.308 582.908C209.471 583.583 209.713 584.24 210.021 584.873C216.64 598.533 243.731 589.792 234.149 575.462C227.491 565.506 206.336 570.61 209.308 582.908Z" fill="#675242"/>
<path fill-rule="evenodd" clip-rule="evenodd" d="M232.509 715.319L246.344 720.05L275.388 725.545L296.013 662.407L256.059 654.752L233.835 660.115L232.509 715.319Z" fill="#F08F6A"/>
<path fill-rule="evenodd" clip-rule="evenodd" d="M290.764 647.667C293.565 645.162 296.393 643.136 300.383 642.375C307.182 641.08 314.802 644.776 316.15 650.81C316.345 651.681 316.444 653.445 316.187 654.311C315.88 655.338 315.52 656.367 314.933 657.295C310.75 663.916 300.214 663.246 292.912 662.296C291.439 662.103 288.326 661.435 286.949 660.712L287.104 660.557C287.345 660.552 287.673 660.573 287.842 660.576C288.416 660.594 288.98 660.732 289.552 660.741C291.635 660.771 293.726 660.861 295.792 660.694C301.441 660.237 309.913 657.612 309.59 651.187C309.542 650.297 309.007 647.283 304.879 646.557C299.356 645.59 296.665 648.238 295.168 649.515C294.347 650.216 293.684 651.046 293.048 651.876C291.77 653.537 290.811 655.378 289.435 656.979C289.059 657.42 288.165 659.594 287.603 659.858C287.566 659.877 287.395 660.234 287.105 660.557C286.873 660.558 286.717 660.581 286.854 660.66L286.949 660.712C286.639 660.992 286.225 661.19 285.712 660.996C285.157 660.986 284.866 660.658 284.707 660.288L284.819 660.276C284.981 660.253 284.848 660.175 284.636 660.09C284.516 659.69 284.521 659.301 284.492 659.27C284.1 658.826 284.261 656.515 284.112 655.972C283.575 654.01 283.525 651.978 283.107 649.997C282.896 649.006 282.664 648.007 282.23 647.069C281.435 645.359 280.161 641.961 274.674 640.848C270.568 640.016 268.723 642.581 268.282 643.376C265.092 649.139 271.664 654.609 276.625 657.071C278.442 657.971 280.395 658.646 282.311 659.371C282.839 659.572 283.419 659.651 283.953 659.841C284.11 659.9 284.416 659.998 284.636 660.09C284.658 660.157 284.681 660.223 284.707 660.288C283.123 660.452 279.975 659.936 278.541 659.579C271.432 657.805 261.492 654.604 260.644 647.032C260.526 645.969 260.657 644.898 260.84 643.847C260.994 642.962 261.879 641.385 262.449 640.659C266.396 635.625 275.031 635.002 280.669 638.648C283.98 640.788 285.654 643.666 287.086 646.972C287.694 648.368 287.891 649.679 288.051 651.048C288.815 649.853 289.584 648.725 290.765 647.667L290.764 647.667Z" fill="#F08F6A"/>
<path fill-rule="evenodd" clip-rule="evenodd" d="M246.414 720.068L305.401 731.219L326.027 668.081L256.192 654.878L246.414 720.068Z" fill="#FCCD41"/>
<path fill-rule="evenodd" clip-rule="evenodd" d="M282.84 659.918L292.698 661.781L279.283 726.28L263.919 723.376L282.84 659.918Z" fill="#F08F6A"/>
<path fill-rule="evenodd" clip-rule="evenodd" d="M190.585 723.436C198.758 729.062 205.642 729.619 218.958 723.191C228.078 718.788 236.898 709.387 243.559 707.082C245.913 706.272 252.348 705.779 254.803 705.482C255.489 705.395 257.382 705.007 258.031 704.587C260.032 703.302 260.667 702.041 260.445 699.759C260.29 698.162 256.691 696.765 256.691 696.765C256.691 696.765 259.551 696.698 261.391 695.242C262.315 694.512 263.057 692.815 262.9 691.845C262.595 689.983 260.297 688.025 258.665 687.133C254.061 684.607 246.431 682.895 240.986 684.286C233.545 686.188 227.37 691.795 219.555 692.643C216.555 692.974 213.503 692.824 210.489 692.683C209.209 692.62 194.832 692.324 188.221 700.212C184.354 704.826 184.124 718.989 190.586 723.435L190.585 723.436Z" fill="#BBD880"/>
<path fill-rule="evenodd" clip-rule="evenodd" d="M212.972 713.513C213.922 713.587 215.048 713.425 215.709 712.744C216.254 712.186 216.397 711.815 216.593 711.104C216.755 710.517 216.693 709.568 215.979 709.261C215.892 709.225 215.016 707.893 212.235 708.226C210.1 708.48 209.009 709.525 209.023 710.044C209.074 712.005 210.878 713.348 212.972 713.514V713.513Z" fill="#F08B6A"/>
<path fill-rule="evenodd" clip-rule="evenodd" d="M194.417 717.772C194.535 718.143 194.712 718.5 194.916 718.837C195.124 719.185 195.346 719.531 195.646 719.815C196.459 720.575 197.492 721.122 198.58 721.496C200.697 722.221 203.729 722.494 205.348 720.745C207.16 718.791 206.705 715.632 204.626 713.977C204.186 713.628 201.434 712.086 198.918 712.357C196.357 712.632 193.559 715.112 194.417 717.771V717.772Z" fill="#F08B6A"/>
<path fill-rule="evenodd" clip-rule="evenodd" d="M189.816 705.08C189.288 705.65 189.265 706.438 189.417 707.122C189.771 708.749 191.29 710.903 193.342 711.032C193.645 711.053 193.956 711.043 194.254 710.989C197.282 710.435 197.829 707.074 196.057 705.113C195.457 704.444 194.241 703.691 193.198 703.685C192.16 703.682 190.67 704.151 189.816 705.08H189.816Z" fill="#F08B6A"/>
<path d="M202.945 728.248C202.669 728.248 202.396 728.244 202.123 728.235C198.31 728.105 193.988 727.959 190.644 725.583C185.648 722.037 184.421 715.012 184.889 710.072C184.919 709.757 185.232 709.513 185.579 709.551C185.93 709.578 186.192 709.856 186.162 710.171C185.721 714.825 186.838 721.421 191.437 724.686C194.455 726.829 198.377 726.96 202.171 727.089C206.537 727.235 211.172 726.138 215.977 723.83C220.422 721.696 224.65 718.923 228.737 716.244C230.472 715.106 232.199 713.973 233.937 712.894C234.736 712.395 235.514 711.892 236.282 711.394C239.835 709.097 243.191 706.924 247.719 705.84C249.249 705.474 250.825 705.22 252.347 704.977C254.075 704.699 255.861 704.414 257.551 703.962C259.063 703.559 260.068 702.916 260.381 702.153C260.63 701.54 260.452 700.81 259.847 699.98C259.033 698.855 257.615 698.092 256.364 697.417C256.12 697.286 256.002 697.026 256.075 696.781C256.148 696.534 256.394 696.36 256.677 696.354C258.805 696.307 260.605 695.483 261.376 694.199C262.035 693.1 261.879 691.751 260.937 690.401C258.714 687.215 254.414 685.488 252.047 684.742C248.2 683.532 244.026 683.431 240.294 684.461C237.351 685.278 234.623 686.755 231.984 688.186C231.267 688.573 230.551 688.962 229.829 689.338C223.028 692.886 216.648 694.109 210.329 693.082C209.983 693.025 209.753 692.726 209.817 692.415C209.878 692.103 210.21 691.897 210.559 691.954C216.65 692.948 222.569 691.801 229.187 688.348C229.901 687.975 230.613 687.591 231.323 687.204C234.028 685.739 236.824 684.223 239.917 683.366C243.91 682.267 248.368 682.371 252.47 683.661C254.994 684.458 259.59 686.311 262.02 689.793C263.216 691.508 263.386 693.265 262.501 694.743C261.755 695.984 260.307 696.891 258.527 697.284C259.429 697.836 260.293 698.49 260.918 699.355C261.755 700.504 261.977 701.577 261.579 702.546C261.118 703.674 259.851 704.544 257.916 705.06C256.156 705.53 254.334 705.822 252.573 706.104C251.076 706.345 249.527 706.593 248.048 706.948C243.748 707.977 240.484 710.088 237.03 712.324C236.255 712.825 235.472 713.333 234.664 713.834C232.938 714.91 231.219 716.038 229.491 717.171C225.368 719.874 221.104 722.67 216.581 724.842C211.87 727.103 207.287 728.249 202.945 728.249L202.945 728.248Z" fill="#009679"/>
<path d="M152.19 841.264C151.848 841.264 151.565 841.017 151.552 840.714C151.538 840.396 151.813 840.128 152.165 840.114C152.458 840.107 181.629 838.935 202.557 824.762C202.838 824.571 203.239 824.62 203.453 824.875C203.665 825.129 203.609 825.488 203.328 825.673C182.072 840.071 152.511 841.251 152.214 841.265H152.19V841.264Z" fill="#009679"/>
<path fill-rule="evenodd" clip-rule="evenodd" d="M182.861 789.72C193.294 788.215 209.39 784.103 219.742 782.709C227.345 781.684 231.242 780.779 239.098 780.988C248 781.225 254.109 823.519 245.459 825.821C242.267 826.668 235.908 827.91 232.616 828.361C226.046 829.265 219.374 829.455 212.781 830.246C206.704 830.98 200.672 830.839 194.723 832.081C186.846 833.725 178.839 834.855 170.781 835.469C170.631 831.982 172.57 828.707 173.096 825.249C174.997 812.741 160.44 792.955 182.861 789.72V789.72Z" fill="#BBD880"/>
<path fill-rule="evenodd" clip-rule="evenodd" d="M239.098 780.989C236.168 780.908 233.788 780.988 231.561 781.167C231.308 781.763 231.213 782.398 231.413 783.044C232.426 786.317 237.129 787.643 240.428 786.523C242.214 785.918 242.317 785.815 243.559 784.715C242.208 782.433 240.697 781.032 239.098 780.99V780.989ZM244.928 787.45C242.273 786.606 239.255 788.245 237.674 790.096C236.842 791.069 236.1 792.281 236.491 793.547C237.507 796.818 242.21 798.144 245.508 797.029C246.677 796.634 247.126 796.451 247.643 796.062C246.902 792.867 245.983 789.895 244.928 787.45H244.928ZM248.231 798.85C247.968 798.709 247.695 798.574 247.432 798.483C244.732 797.488 241.605 799.167 239.986 801.059C239.155 802.033 238.412 803.247 238.803 804.511C239.819 807.786 244.523 809.113 247.82 807.991C248.578 807.737 249.034 807.568 249.398 807.384C249.165 804.56 248.769 801.659 248.231 798.85L248.231 798.85Z" fill="#009679"/>
<path d="M171.051 798.674C170.978 798.674 170.902 798.66 170.831 798.638C170.499 798.525 170.33 798.201 170.454 797.904C171.541 795.265 173.996 792.907 177.366 791.265C180.451 789.761 183.992 788.96 186.837 788.317C202.288 784.814 220.522 781.178 238.78 781.304C239.915 781.307 241.016 781.35 241.996 781.828C243.427 782.525 243.825 783.56 244.248 784.655C244.496 785.3 244.76 785.834 245.025 786.366C245.433 787.192 245.856 788.045 246.101 788.973C246.183 789.291 246.259 789.719 246.335 790.153C246.424 790.665 246.548 791.367 246.661 791.586C246.808 791.872 246.669 792.212 246.348 792.345C246.028 792.482 245.648 792.354 245.499 792.066C245.325 791.727 245.222 791.184 245.073 790.33C245.003 789.928 244.934 789.532 244.857 789.236C244.639 788.412 244.261 787.644 243.857 786.831C243.579 786.27 243.301 785.706 243.075 785.124C242.658 784.036 242.381 783.32 241.386 782.834C240.668 782.485 239.778 782.453 238.775 782.45C220.675 782.424 202.524 785.944 187.149 789.427C184.374 790.055 180.92 790.838 177.976 792.272C174.878 793.783 172.632 795.922 171.651 798.3C171.555 798.534 171.312 798.674 171.051 798.674L171.051 798.674Z" fill="#009679"/>
<path d="M1680.16 491.444C1680.65 491.67 1681.16 491.876 1681.65 492.07C1685.22 493.468 1688.8 494.835 1692.39 496.169C1695.41 497.293 1698.25 498.619 1701.62 498.34C1702.22 498.288 1702.86 498.183 1703.36 497.856C1705.8 496.248 1704.4 490.204 1704.24 487.947C1703.94 484.024 1703.4 480.114 1702.61 476.247C1702.4 475.218 1702.15 474.144 1701.4 473.344C1699.96 471.828 1697.36 471.869 1695.2 472.294C1691.89 472.945 1688.63 475.931 1686.06 477.86C1683.44 479.817 1675.07 484.894 1676.63 488.467C1677.24 489.856 1678.64 490.75 1680.16 491.444H1680.16Z" fill="#009679"/>
<path d="M1719.86 519.421C1720.04 519.889 1720.26 520.351 1720.46 520.797C1721.98 524.008 1723.54 527.204 1725.12 530.387C1726.47 533.064 1727.51 535.78 1730.17 537.645C1730.66 537.984 1731.2 538.298 1731.81 538.367C1734.82 538.701 1738.43 533.447 1740.04 531.704C1742.83 528.67 1745.42 525.494 1747.81 522.194C1748.44 521.317 1749.08 520.38 1749.16 519.338C1749.28 517.355 1747.35 515.78 1745.44 514.757C1742.53 513.187 1737.89 513.354 1734.54 513.175C1731.15 512.995 1721.18 511.529 1719.56 515.084C1718.95 516.467 1719.28 517.981 1719.86 519.421L1719.86 519.421Z" fill="#009679"/>
<path d="M1738.56 566.535C1738.61 567.03 1738.69 567.525 1738.76 568.006C1739.32 571.457 1739.92 574.904 1740.55 578.345C1741.08 581.239 1741.34 584.104 1743.37 586.515C1743.75 586.954 1744.18 587.38 1744.75 587.586C1747.57 588.596 1752.55 584.34 1754.59 583.02C1758.16 580.723 1761.58 578.244 1764.82 575.598C1765.68 574.894 1766.55 574.134 1766.91 573.14C1767.6 571.253 1766.18 569.289 1764.64 567.867C1762.27 565.685 1757.72 564.783 1754.54 563.848C1751.31 562.899 1742.07 559.203 1739.52 562.275C1738.52 563.47 1738.42 565.01 1738.56 566.535V566.535Z" fill="#009679"/>
<path d="M1748.36 612.532C1748.37 613.03 1748.41 613.526 1748.45 614.011C1748.73 617.489 1749.05 620.966 1749.41 624.439C1749.72 627.36 1749.73 630.233 1751.58 632.766C1751.91 633.229 1752.3 633.683 1752.87 633.925C1755.59 635.112 1760.9 631.185 1763.05 629.999C1766.78 627.936 1770.38 625.682 1773.82 623.25C1774.74 622.603 1775.68 621.902 1776.12 620.933C1776.95 619.094 1775.69 617.045 1774.27 615.528C1772.08 613.2 1767.62 612.009 1764.52 610.872C1761.37 609.719 1752.46 605.443 1749.66 608.345C1748.56 609.472 1748.34 611.002 1748.36 612.532H1748.36Z" fill="#009679"/>
<path d="M1752.41 660.146C1752.42 660.644 1752.45 661.142 1752.49 661.627C1752.76 665.104 1753.1 668.58 1753.45 672.053C1753.76 674.975 1753.77 677.848 1755.62 680.382C1755.95 680.845 1756.35 681.299 1756.9 681.539C1759.63 682.727 1764.94 678.801 1767.09 677.614C1770.82 675.551 1774.42 673.297 1777.86 670.865C1778.79 670.218 1779.72 669.517 1780.16 668.548C1781 666.708 1779.74 664.661 1778.31 663.143C1776.12 660.815 1771.66 659.624 1768.56 658.488C1765.41 657.334 1756.5 653.058 1753.69 655.961C1752.61 657.089 1752.39 658.618 1752.41 660.146H1752.41Z" fill="#009679"/>
<path d="M1768.56 712.709C1769.03 712.959 1769.52 713.189 1770.01 713.408C1773.48 714.98 1776.97 716.524 1780.47 718.036C1783.42 719.31 1786.17 720.776 1789.55 720.663C1790.16 720.643 1790.8 720.568 1791.31 720.267C1793.85 718.784 1792.84 712.679 1792.81 710.418C1792.76 706.486 1792.46 702.556 1791.91 698.654C1791.76 697.617 1791.58 696.533 1790.87 695.696C1789.55 694.11 1786.94 694.022 1784.75 694.337C1781.4 694.822 1777.96 697.642 1775.27 699.439C1772.57 701.264 1763.89 705.914 1765.22 709.559C1765.74 710.977 1767.08 711.938 1768.56 712.709H1768.56Z" fill="#009679"/>
<path d="M1827.68 716.603C1828.22 716.521 1828.77 716.415 1829.29 716.307C1833.08 715.528 1836.87 714.719 1840.64 713.875C1843.82 713.168 1846.99 712.718 1849.5 710.7C1849.95 710.331 1850.39 709.908 1850.58 709.38C1851.48 706.785 1846.34 702.67 1844.71 700.947C1841.88 697.949 1838.84 695.096 1835.64 692.409C1834.79 691.694 1833.87 690.966 1832.75 690.725C1830.59 690.266 1828.52 691.691 1827.06 693.184C1824.84 695.477 1824.19 699.615 1823.41 702.537C1822.62 705.499 1819.24 714.049 1822.86 716.091C1824.27 716.884 1826 716.855 1827.68 716.603H1827.68Z" fill="#009679"/>
<path d="M1875.07 710.763C1875.59 710.911 1876.13 711.036 1876.66 711.153C1880.44 711.991 1884.22 712.796 1888.01 713.57C1891.2 714.221 1894.26 715.098 1897.51 714.313C1898.1 714.169 1898.72 713.97 1899.13 713.573C1901.24 711.617 1898.73 705.872 1898.14 703.674C1897.11 699.85 1895.85 696.079 1894.34 692.386C1893.93 691.404 1893.49 690.383 1892.6 689.71C1890.9 688.43 1888.34 688.864 1886.28 689.61C1883.14 690.755 1880.49 694.19 1878.33 696.48C1876.12 698.803 1868.82 705.076 1871.03 708.36C1871.89 709.638 1873.43 710.307 1875.07 710.763L1875.07 710.763Z" fill="#009679"/>
<path d="M1625.92 499.031C1627.51 499.454 1629.16 499.009 1630.7 498.359C1631.2 498.148 1631.7 497.914 1632.17 497.681C1635.59 496.015 1638.98 494.318 1642.36 492.593C1645.21 491.14 1648.12 489.941 1649.93 487.388C1650.27 486.922 1650.57 486.409 1650.58 485.857C1650.63 484.278 1648.78 483.696 1647.62 482.887C1645.83 481.65 1644.01 480.453 1642.15 479.316C1638.5 477.094 1634.69 475.083 1630.76 473.304C1628.85 472.444 1626.65 471.625 1624.67 472.325C1619.95 473.992 1621.44 481.51 1621.78 484.984C1621.6 487.709 1622.34 490.742 1622.6 493.466C1622.78 495.285 1623.59 498.414 1625.92 499.031Z" fill="#009679"/>
<path d="M1593.1 566.927C1592.84 566.613 1592.57 566.291 1592.33 565.96C1586.98 558.907 1586.12 549.783 1587.49 541.345C1590.19 524.702 1602.09 507.633 1616.83 497.287C1630.93 487.399 1649.07 481.682 1666.85 483.481C1679.78 484.79 1693.27 491.159 1698.42 502.148C1705.13 516.455 1703.83 533.341 1696.04 547.097C1688.24 560.905 1677.22 567.692 1661.96 574.065C1650.66 578.793 1637.86 581.159 1625.4 579.938C1619.21 579.333 1613.14 577.824 1607.58 575.327C1602.66 573.124 1596.5 570.897 1593.1 566.927L1593.1 566.927Z" fill="#FCCD41"/>
<path d="M1663.11 543.851C1660.94 533.748 1662.58 524.323 1662.44 514.235C1662.31 504.736 1665.17 496.28 1662.21 486.744C1662.12 486.439 1662.03 486.101 1662.17 485.815C1662.29 485.597 1662.53 485.456 1662.76 485.337C1665.67 483.863 1669.24 484.024 1672.54 484.487C1685.27 486.275 1698.99 491.687 1708.24 499.804C1715.92 506.539 1722.4 514.376 1727.35 522.925C1736.42 538.594 1740.2 556.221 1743.87 573.565C1748.58 595.816 1753.3 618.11 1755.59 640.667C1756.86 653.174 1757.36 665.807 1760.22 678.138C1762.48 687.974 1764.07 700.536 1771.99 708.197C1775.16 711.271 1779.31 713.389 1783.53 715.209C1794.95 720.152 1807.23 723.74 1819.01 718.944C1831.09 714.015 1845.08 710.339 1858.34 709.397C1870.58 708.526 1883.4 710.459 1893.57 716.637C1904.39 723.208 1911.25 733.961 1915 745.241V790.917C1913.79 794.493 1912.28 797.988 1910.47 801.362C1899.95 820.962 1879.63 827.855 1857.45 833.382C1814.81 844.009 1768.21 841.41 1727.35 826.132C1718.71 822.902 1710.2 819.043 1703.39 813.27C1692.49 804.023 1687.01 790.741 1683.89 777.579C1675.6 742.634 1681.68 706.791 1688.08 672.037C1691.12 655.569 1694.29 639.104 1696.24 622.496C1698.05 607.053 1699.57 590.447 1694.2 575.416C1693.25 572.744 1692.04 570.079 1690 567.953C1687.95 565.827 1684.95 564.295 1681.82 564.452C1678.55 564.615 1675.76 566.519 1673.18 568.345C1672.92 568.53 1667.2 556.975 1666.79 555.881C1665.37 552.016 1663.95 547.814 1663.11 543.851L1663.11 543.851Z" fill="#FCCD41"/>
<path d="M1901.38 778.12C1898.86 777.022 1896.55 775.394 1894.39 773.117C1887.34 765.692 1884.67 754.988 1882.95 745.646C1882.14 741.218 1881.64 736.583 1881.55 732.097C1881.48 728.587 1880.39 727.015 1877.47 724.487C1874.41 721.835 1869.99 718.476 1865.62 717.863C1862.11 717.368 1857.94 718.31 1854.34 718.293C1847.21 718.26 1838.49 717.625 1831.69 719.809C1825.99 721.646 1821.71 723.16 1815.37 723.332C1808.15 723.528 1800.9 722.762 1793.92 721.08C1790.44 720.238 1787.01 719.17 1783.71 717.876C1774.5 714.279 1768.39 708.766 1765.9 699.865C1766.95 703.641 1770.87 706.12 1774.5 708.251C1782.94 713.203 1790.72 716.613 1800.94 717.269C1811.29 717.932 1821.3 715.032 1831.07 712.38C1840.65 709.778 1850.42 707.956 1860.26 706.403C1880.97 703.133 1896.51 710.43 1913.05 720.338C1913.7 720.728 1914.35 721.119 1915 721.511V779.725C1914.41 779.906 1913.76 779.936 1913.13 779.961C1908.66 780.132 1904.82 779.619 1901.38 778.121L1901.38 778.12Z" fill="#FCCD41"/>
<path d="M1749.23 814.79C1755.62 817.782 1761.71 821.347 1767.92 824.619C1771.9 826.727 1775.91 828.829 1779.95 830.86C1784.64 833.221 1788.56 836.401 1792.91 839.301C1791.14 839.441 1789.38 839.722 1787.65 840.149C1786.66 840.401 1785.65 840.717 1784.9 841.354C1784.27 841.9 1783.88 842.629 1783.55 843.357C1782.44 845.748 1781.98 848 1781.76 850.313H1728.46C1727.55 841.407 1726.42 832.453 1726.92 823.652C1727.16 819.483 1727.57 814.937 1732.23 813.13C1737.57 811.064 1744.31 812.654 1749.23 814.79V814.79Z" fill="#FCCD41"/>
<path d="M1905.66 808.479C1897.85 815.988 1894.2 826.377 1893.42 836.618C1893.21 839.371 1893.34 842.11 1893.4 844.863C1893.45 846.803 1892.94 848.465 1892.6 850.313H1840.79C1840.45 846.562 1839.82 842.712 1838.31 839.252C1836.42 834.881 1833.01 830.384 1835.38 825.551C1836.16 823.981 1837.48 822.678 1838.87 821.502C1857.76 805.544 1882.29 811.022 1905.19 808.262L1905.66 808.479H1905.66Z" fill="#FCCD41"/>
<path d="M1642.21 556.682C1639.83 556.682 1637.35 556.005 1635.19 554.748C1632.89 553.409 1630.88 551.386 1629.36 548.899C1629.12 548.502 1629.28 548.008 1629.73 547.793C1630.17 547.575 1630.71 547.721 1630.96 548.117C1632.33 550.37 1634.14 552.191 1636.18 553.384C1638.45 554.709 1641.13 555.282 1643.52 554.967C1644.7 554.811 1645.92 554.447 1647.36 553.82C1649.88 552.717 1652.16 551.226 1654.09 549.394C1654.44 549.068 1655.01 549.054 1655.37 549.365C1655.74 549.674 1655.76 550.189 1655.41 550.517C1653.32 552.492 1650.87 554.095 1648.15 555.286C1646.54 555.988 1645.16 556.397 1643.8 556.578C1643.28 556.648 1642.75 556.683 1642.21 556.683V556.682Z" fill="#73524F"/>
<path d="M1607.98 572.091C1604.54 572.091 1601.11 571.661 1597.79 570.794C1597.31 570.666 1597.03 570.214 1597.17 569.783C1597.31 569.35 1597.81 569.114 1598.3 569.227C1605.64 571.15 1613.59 570.82 1620.71 568.302C1627.82 565.781 1633.88 561.142 1637.78 555.24C1638.03 554.856 1638.59 554.728 1639.02 554.954C1639.45 555.183 1639.6 555.682 1639.34 556.071C1635.24 562.282 1628.86 567.163 1621.37 569.816C1617.1 571.329 1612.54 572.091 1607.98 572.091L1607.98 572.091Z" fill="#73524F"/>
<path d="M1621.04 511.716C1627.05 509.287 1633.91 514.051 1637.45 518.269C1641.41 522.988 1641.82 529.366 1637.36 533.95C1633.59 537.845 1627.31 539.414 1621.65 538.464C1619.16 538.047 1616.72 537.161 1614.85 535.629C1612.33 533.575 1611.06 530.484 1610.98 527.434C1610.91 524.387 1611.97 521.381 1613.55 518.681C1615.25 515.771 1617.7 513.066 1621.04 511.716H1621.04Z" fill="#FEFEFE"/>
<path d="M1626.44 515.59C1630.79 513.831 1635.76 517.283 1638.32 520.34C1641.19 523.759 1641.49 528.381 1638.26 531.702C1635.53 534.525 1630.97 535.661 1626.87 534.973C1625.07 534.67 1623.3 534.029 1621.95 532.919C1620.13 531.431 1619.19 529.19 1619.15 526.981C1619.09 524.772 1619.86 522.594 1621 520.639C1622.24 518.529 1624.02 516.571 1626.44 515.591V515.59Z" fill="#73524F"/>
<path d="M1654.32 527.131C1662.96 527.284 1667.54 534.592 1661.47 540.627C1658.35 543.733 1653.8 545.742 1649.1 545.732C1647.11 545.728 1645.06 545.377 1643.42 544.365C1640.91 542.816 1639.73 539.856 1640.14 537.147C1640.54 534.438 1642.36 532.004 1644.71 530.257C1647.39 528.264 1650.83 527.072 1654.32 527.131H1654.32Z" fill="#F0906E"/>
<path d="M1721.02 546.404C1721.07 541.139 1724.38 538.375 1729.32 542.466C1732.54 545.137 1733.21 549.619 1732.19 553.286C1731.71 555.009 1730.59 556.826 1728.67 557.258C1727.01 557.632 1725.27 556.819 1724.09 555.704C1721.54 553.296 1720.99 549.719 1721.02 546.403V546.404Z" fill="#F08F6A"/>
<path d="M1718.24 571.062C1718.28 566.584 1721.09 564.235 1725.3 567.713C1728.03 569.983 1728.6 573.798 1727.74 576.915C1727.32 578.381 1726.38 579.926 1724.74 580.294C1723.33 580.612 1721.85 579.92 1720.85 578.97C1718.69 576.925 1718.21 573.882 1718.24 571.062Z" fill="#F08F6A"/>
<path d="M1714 534.515C1712.15 532.721 1710.85 528.093 1714.45 526.956C1717.37 526.034 1720.46 530.02 1720.88 532.232C1721.16 533.752 1720.36 535.506 1718.73 536.036C1717.07 536.586 1715.21 535.688 1714 534.515Z" fill="#F08F6A"/>
<path d="M1732.92 590.492C1730.75 589.013 1731.51 584.787 1731.91 582.706C1732.41 580.006 1735.52 579.049 1737.16 582.104C1738.05 583.758 1738.66 587.969 1737.54 589.538C1736.58 590.882 1734.33 591.46 1732.92 590.493L1732.92 590.492Z" fill="#F08F6A"/>
<path d="M1855.73 714.474C1859.53 713.362 1864.78 712.233 1866.59 716.266C1867.66 718.609 1866.58 721.051 1864.56 722.631C1860.2 726.038 1853.52 724.354 1852.28 719.226C1851.99 718.007 1852.14 716.611 1853.09 715.707C1853.79 715.056 1854.78 714.753 1855.73 714.474V714.474Z" fill="#F08F6A"/>
<path d="M1834.97 719.642C1835.06 718.195 1836.69 717.241 1838.23 716.784C1840.6 716.072 1847.46 717.03 1844.41 720.428C1842.64 722.408 1834.73 723.616 1834.97 719.641L1834.97 719.642Z" fill="#F08F6A"/>
<path d="M1872.58 722.492C1872.66 721.045 1874.29 720.092 1875.83 719.635C1878.21 718.923 1885.06 719.883 1882.01 723.279C1880.24 725.259 1872.33 726.467 1872.58 722.491V722.492Z" fill="#F08F6A"/>
<path d="M1822.49 733.887C1821.09 732.468 1820.63 730.493 1822.41 728.638C1823.26 727.748 1824.7 727.555 1826.02 727.592C1827.96 727.646 1829.91 728.078 1831.65 728.851C1832.57 729.256 1833.47 729.781 1834 730.564C1836.22 733.848 1829.8 735.933 1827.19 735.882C1825.46 735.849 1823.65 735.057 1822.49 733.887H1822.49Z" fill="#F08F6A"/>
<path d="M1815.11 722.869C1817.15 719 1822.31 721.752 1819.77 724.272C1819.2 724.842 1818.41 725.197 1817.59 725.399C1816.78 725.596 1815.81 725.617 1815.24 725.077C1814.63 724.51 1814.75 723.578 1815.11 722.868V722.869Z" fill="#F08F6A"/>
<path d="M1726.98 826.881C1727.05 826.902 1761.15 840.436 1805.91 840.436C1835.24 840.436 1869.16 834.622 1901.02 815.351L1900 813.999C1868.51 833.046 1834.98 838.804 1805.91 838.811C1783.74 838.811 1764.17 835.448 1750.16 832.093C1743.15 830.412 1737.54 828.73 1733.67 827.477C1731.75 826.846 1730.25 826.321 1729.24 825.957C1728.74 825.774 1728.36 825.634 1728.11 825.536C1727.97 825.487 1727.87 825.452 1727.81 825.424L1727.73 825.389L1726.98 826.881Z" fill="#F08F6A"/>
<path d="M451.314 823.505C455.409 831.121 459.023 838.942 462.213 846.89C462.671 848.028 463.118 849.169 463.554 850.313H471.097C467.148 838.649 462.648 827.036 456.232 816.503C447.629 802.386 436.436 789.089 421.298 780.143C425.957 782.897 427.821 788.323 430.619 792.364C434.65 798.186 439.268 803.636 443.109 809.586C446.039 814.131 448.769 818.783 451.314 823.505H451.314Z" fill="#FCCD41"/>
<path d="M441.563 768.285C439.898 760.39 439.153 752.34 439.325 744.306C439.398 740.855 439.397 737.319 440.463 733.996C440.898 732.633 441.331 731.328 441.697 729.936C441.944 728.994 443.755 725.851 443.516 725.099C447.424 737.427 454.717 749.063 455.626 761.853C456.009 767.273 455.221 772.711 454.045 778.038C452.994 782.799 451.294 787.349 449.992 792.037C449.462 793.951 449.257 795.941 448.775 797.875C448.597 798.588 446.613 803.127 446.918 803.508C444.545 800.537 446.373 791.252 445.726 787.075C444.746 780.747 442.887 774.555 441.563 768.284V768.285Z" fill="#FCCD41"/>
<path d="M461.251 776.983C464.344 766.886 468.392 756.819 468.672 746.24C469.939 751.769 471.329 757.274 472.843 762.754C474.653 769.305 476.656 775.95 476.236 782.689C475.802 789.649 472.69 797.65 467.41 802.824C461.588 808.527 455.97 813.68 453.478 821.345C455.623 814.745 455.398 808.012 456.457 801.356C457.755 793.195 458.81 784.949 461.251 776.983H461.251Z" fill="#FCCD41"/>
<path d="M492.076 781.823C492.095 781.926 492.112 782.026 492.126 782.123C492.585 785.329 492.713 788.572 492.519 791.8C492.186 797.269 491.361 805.055 487.606 809.579C485.234 812.445 482.84 815.325 479.88 817.704C476.513 820.407 472.506 822.39 468.937 824.875C466.359 826.675 464.449 829.025 462.357 831.242C461.602 824.741 466.179 817.238 469.834 811.852C473.72 806.127 478.32 800.798 481.933 794.926C486.003 788.315 488.778 781.063 490.092 773.601C489.723 775.699 491.624 779.459 492.076 781.823Z" fill="#FCCD41"/>
<path d="M469.392 833.62C470.356 832.674 471.218 831.877 471.636 831.418C475.154 827.507 479.602 824.388 483.663 820.964C491.753 814.146 498.493 806.043 503.475 797.142C502.3 799.238 502.979 803.862 502.43 806.325C501.689 809.65 500.562 812.903 499.073 816.023C495.838 822.799 492.011 827.592 484.824 831.305C480.215 833.683 475.167 835.349 470.702 837.961C469.531 838.645 466.266 841.893 465.312 840.375C464.341 838.836 467.143 835.815 469.392 833.619V833.62Z" fill="#FCCD41"/>
<path d="M480.592 840.333C492.613 833.423 504.633 826.519 516.655 819.609C513.491 824.995 509.34 829.907 504.468 834.143C500.041 837.997 498.007 842.782 492.073 845.38C487.851 847.229 483.189 848.076 478.637 849.114C477.079 849.468 475.516 849.855 473.984 850.314H468.301C471.523 846.199 475.518 843.247 480.592 840.333Z" fill="#FCCD41"/>
<path d="M502.787 850.313C508.982 846.106 514.806 841.46 520.182 836.429C520.709 838.109 520.029 839.881 519.357 841.518C518.143 844.48 516.895 847.488 515.327 850.313H502.787V850.313Z" fill="#FCCD41"/>
<path d="M440.781 840.664C439.748 840.608 438.716 840.565 437.688 840.509C424.739 839.81 411.893 841.328 399.182 838.031C396.742 837.396 394.339 836.641 391.856 836.161C393.942 836.563 397.878 841.779 399.591 843.177C402.395 845.464 405.415 847.575 408.777 849.163C409.686 849.593 410.594 849.975 411.503 850.313H466.055C464.04 846.635 459.074 843.86 455.181 842.641C450.579 841.2 445.671 840.897 440.781 840.664H440.781Z" fill="#FCCD41"/>
<path d="M429.729 820.865C421.772 819.736 413.927 819.559 405.992 818.536C401.67 817.978 397.319 817.611 392.957 817.428C391.255 817.35 381.275 818.282 380.456 817.4C385.347 822.658 392.088 826.505 399.468 828.255C408.318 830.359 417.653 829.462 426.794 829.039C437.213 828.559 448.578 829.265 457.899 833.867C456.696 833.274 455.801 830.027 454.455 828.948C452.508 827.381 449.693 826.258 447.336 825.291C441.774 823.005 435.751 821.72 429.729 820.866V820.865Z" fill="#FCCD41"/>
<path d="M431.439 807.779C425.364 806.127 419.078 805.09 413.155 803.043C408.504 801.433 404.412 798.652 399.787 797.114C396.233 795.928 392.878 794.798 389.382 793.391C385.255 791.734 380.966 790.399 376.581 789.409C374.302 788.893 371.995 788.47 369.673 788.144C368.326 787.954 364.789 788.188 363.745 787.52C369.863 791.437 373.887 797.431 379.385 802.034C387.486 808.81 398.885 812.297 409.916 811.379C421.269 810.433 433.445 811.514 443.828 816.073C446.284 817.153 448.684 818.43 450.524 820.245C450.145 818.939 449.996 816.504 449.089 815.438C448.129 814.308 445.759 813.927 444.425 813.221C440.181 810.991 436.19 809.078 431.438 807.779H431.439Z" fill="#FCCD41"/>
<path d="M441.132 803.459C433.513 793.831 421.852 787.495 410.273 781.88C398.696 776.264 386.638 770.953 377.315 762.62C374.655 760.242 372.314 757.717 369.301 755.731C367.272 754.393 361.33 752.329 360.17 750.533C364.737 757.608 369.304 764.683 373.871 771.758C376.319 775.549 378.822 779.405 382.42 782.368C387.883 786.866 395.351 788.874 402.687 789.843C409.766 790.779 417.965 790.162 424.78 792.188C427.853 793.101 430.754 795.229 433.227 797.043C434.508 797.982 440.551 801.715 440.631 803.149C440.55 801.702 439.889 800.283 438.797 799.217L441.132 803.459H441.132Z" fill="#FCCD41"/>
<path d="M420.148 757.69C417.476 747.794 416.003 737.615 416.023 727.429C424.676 740.075 433.557 753.316 435.023 768.094C435.935 777.292 434.392 786.386 437.775 795.293C437.578 794.777 434.835 793.425 434.242 792.85C433.233 791.872 432.351 790.714 431.398 789.702C429.06 787.218 427.143 784.721 425.534 781.771C422.121 775.511 420.128 768.732 417.163 762.309C409.12 744.893 393.937 730.544 376.025 720.682C371.555 718.221 366.772 715.979 361.567 715.411C365.815 722.364 370.062 729.315 374.309 736.268C377.755 741.907 381.213 747.563 385.394 752.787C388.852 757.107 392.784 761.104 396.78 765.033C406.274 774.366 416.226 783.402 427.509 790.964C428.675 791.746 430.664 792.363 431.297 791.188C431.813 790.232 429.804 784.375 429.533 783.048C429.062 780.761 427.939 779.01 426.978 776.862C424.641 771.638 422.66 766.285 421.044 760.847C420.733 759.799 420.434 758.746 420.148 757.691L420.148 757.69Z" fill="#FCCD41"/>
<path d="M1519.28 850.313C1518.77 848.291 1518.19 846.228 1517.54 844.121C1516.51 840.801 1515.34 837.424 1514.2 834.159C1510.66 823.946 1506.98 813.389 1507.1 802.482C1507.17 795.618 1508.77 788.799 1510.3 782.202C1512.15 774.293 1514.05 766.114 1513.22 758.072C1513.15 757.359 1513.74 756.728 1514.53 756.662C1515.33 756.592 1516.02 757.12 1516.11 757.834C1516.98 766.263 1515.02 774.635 1513.13 782.733C1511.63 789.206 1510.06 795.898 1509.99 802.511C1509.87 813.004 1513.48 823.365 1516.96 833.389C1518.11 836.674 1519.29 840.072 1520.33 843.434C1521.05 845.778 1521.69 848.07 1522.24 850.313H1519.28H1519.28Z" fill="#BBD880"/>
<path fill-rule="evenodd" clip-rule="evenodd" d="M1512.35 765.841C1508.08 765.872 1503.37 769.763 1503.82 773.748C1503.95 774.884 1504.37 777.163 1505.7 777.797C1507.36 778.595 1508.7 777.01 1509.42 775.912C1509.69 775.512 1510.13 774.668 1510.13 774.668C1510.13 774.668 1510.36 775.425 1510.49 775.79C1510.71 776.37 1511.01 777.449 1511.63 777.95C1512.42 778.614 1513.39 778.051 1513.71 777.271C1513.95 776.72 1514.07 776.125 1514.16 775.542C1514.23 775.156 1514.18 774.379 1514.18 774.379C1514.18 774.379 1514.43 774.548 1514.52 774.654C1514.62 774.775 1514.66 774.932 1514.77 775.052C1515.19 775.528 1515.6 776.006 1516.09 776.432C1517.18 777.404 1519.17 778.039 1520.26 776.66C1520.56 776.279 1520.57 775.369 1520.53 774.945C1520.27 772.445 1519.16 770.973 1517.38 768.964C1516.86 768.387 1516.26 767.886 1515.68 767.365C1515.47 767.19 1515.27 767.021 1515.02 766.889C1514.9 766.809 1514.53 766.609 1514.58 766.741L1512.35 765.841L1512.35 765.841Z" fill="#009679"/>
<path fill-rule="evenodd" clip-rule="evenodd" d="M1484.98 756.843C1471.13 740.819 1460.79 717.457 1461.77 696.701C1462.63 678.4 1474.81 657.512 1494.93 651.496C1513.35 645.991 1529.96 649.189 1541.8 660.035C1560.4 677.084 1567.3 692.166 1561.21 718.162C1557.71 733.091 1544.87 768.952 1511.96 769.624C1501.78 769.837 1490.89 763.682 1484.98 756.843L1484.98 756.843Z" fill="#BBD880"/>
<path d="M1536.62 669.457C1537.26 665.615 1532.33 659.776 1527.57 660.806C1522.36 661.93 1522.71 668.656 1525.26 671.419C1526.29 672.544 1527.52 673.61 1529.06 674.063C1532.35 675.033 1536.11 672.536 1536.62 669.457H1536.62Z" fill="#009679"/>
<path d="M1553.07 689.527C1555.6 685.96 1552.62 679.711 1547.48 679.884C1541.96 680.07 1542.09 686.026 1544.63 688.966C1546.21 690.793 1549.09 692.103 1551.35 691.02C1552.07 690.681 1552.64 690.138 1553.07 689.527H1553.07Z" fill="#009679"/>
<path d="M1548.14 708.522C1549.64 705.018 1545.45 701.132 1541.74 700.288C1537.03 699.215 1531.84 700.736 1529.51 704.783C1528.43 706.655 1528.08 708.929 1528.94 710.892C1529.5 712.192 1530.55 713.281 1531.69 714.232C1533.01 715.333 1534.54 716.31 1536.29 716.678C1538.93 717.235 1541.79 716.287 1543.82 714.659C1545.86 713.032 1547.17 710.804 1548.14 708.522H1548.14Z" fill="#009679"/>
<path d="M266.579 469.157C249.893 457.576 245.5 434.381 256.984 418.509C258.482 416.44 260.211 414.495 261.883 412.613C264.743 409.395 267.445 406.359 269.064 402.77C271.302 397.81 271.432 391.744 269.453 384.737C267.559 378.029 264.148 371.589 260.851 365.36C259.473 362.762 258.049 360.074 256.745 357.385C253.103 349.88 248.563 338.614 251.17 327.445C252.324 322.507 254.782 317.958 257.16 313.559C259.095 309.978 261.095 306.278 262.31 302.473C265.064 293.839 263.834 284.398 258.937 276.569L261.876 275.089C267.212 283.617 268.552 293.901 265.551 303.303C264.257 307.361 262.192 311.181 260.194 314.878C257.8 319.307 255.539 323.49 254.471 328.063C252.637 335.922 254.341 344.854 259.837 356.18C261.118 358.821 262.531 361.486 263.896 364.064C267.265 370.424 270.747 376.999 272.722 383.994C274.882 391.637 274.702 398.337 272.19 403.903C270.386 407.9 267.404 411.254 264.52 414.498C262.898 416.321 261.222 418.209 259.813 420.154C249.244 434.761 253.287 456.107 268.642 466.766L266.579 469.156L266.579 469.157Z" fill="#FCCD41"/>
<path fill-rule="evenodd" clip-rule="evenodd" d="M255.976 331.507C250.651 331.259 244.441 335.799 244.674 340.803C244.742 342.232 245.07 345.103 246.67 345.985C248.68 347.09 250.492 345.205 251.485 343.882C251.849 343.4 252.464 342.375 252.464 342.375C252.464 342.375 252.691 343.335 252.831 343.802C253.053 344.54 253.346 345.907 254.057 346.572C254.986 347.455 256.258 346.818 256.726 345.866C257.066 345.193 257.267 344.458 257.432 343.737C257.548 343.261 257.56 342.288 257.56 342.288C257.56 342.288 257.847 342.515 257.954 342.654C258.068 342.809 258.11 343.01 258.233 343.165C258.709 343.789 259.193 344.412 259.753 344.976C261.037 346.263 263.482 347.192 264.943 345.543C265.35 345.085 265.451 343.952 265.428 343.42C265.317 340.282 264.051 338.369 261.997 335.743C261.405 334.987 260.685 334.32 260.001 333.631C259.767 333.399 259.516 333.174 259.226 332.994C259.073 332.885 258.63 332.611 258.691 332.779L255.976 331.506V331.507Z" fill="#F0906E"/>
<path fill-rule="evenodd" clip-rule="evenodd" d="M287.182 246.776C306.842 250.186 316.335 268.255 314.399 287.331C313.296 298.201 307.162 305.967 299.591 313.952C285.351 328.947 257.762 338.066 255.583 338.809L255.527 338.875L255.472 338.855L255.416 338.875L255.354 338.806C253.2 338.01 230.523 330.628 214.267 316.655C205.832 309.397 198.919 296.78 198.153 285.885C196.808 266.769 206.857 248.943 226.613 246.023C238.78 244.222 250.281 251.492 256.676 260.957C263.353 251.653 275.075 244.673 287.181 246.776H287.182Z" fill="#FCCD41"/>
<path d="M214.225 280.338C215.57 277.251 215.941 273.574 211.47 273.43C208.388 273.331 205.583 274.578 205.369 277.6C205.237 279.465 206.25 281.363 207.952 282.44C209.178 283.217 210.882 283.55 212.185 282.884C213.219 282.355 213.792 281.331 214.225 280.339L214.225 280.338Z" fill="#F0906E"/>
<path d="M1694.02 367.596C1691.97 367.596 1689.97 366.947 1688.32 365.678C1683.41 361.906 1681.39 354.853 1680.07 348.453C1677.59 336.489 1676.22 323.627 1675.98 310.222C1675.96 308.476 1675.93 306.709 1675.92 304.93C1675.8 291.881 1675.68 278.385 1669.7 268.677C1669.48 268.324 1669.32 268.091 1669.2 267.94C1668.9 268.251 1668.42 268.885 1667.9 270.014C1660.34 286.26 1659.74 305.126 1659.1 325.1C1658.76 336.013 1658.39 347.296 1656.78 358.062C1656.47 360.124 1656.06 362.281 1654.7 363.965C1653.37 365.613 1651.55 366.386 1649.58 366.103C1645.96 365.61 1642.78 361.74 1641.24 358.123C1635.75 345.173 1635.38 330.294 1635.01 315.904C1634.75 305.669 1634.49 295.086 1632.37 285.347C1631.57 281.673 1630.1 279.866 1629.68 279.936C1629.59 279.952 1628.74 280.181 1627.42 283.536C1622.79 295.227 1622.35 310.828 1621.96 324.594L1621.82 329.718C1621.54 340.103 1621.23 350.843 1615.69 359.235C1615.33 359.788 1614.36 361.252 1612.6 361.503C1611.76 361.623 1608.94 361.666 1607.82 357.204C1606.08 350.298 1605.64 343.089 1605.22 336.118C1605.13 334.707 1605.05 333.299 1604.94 331.895C1604.02 318.497 1602.09 305.105 1599.22 292.091C1598.61 289.302 1597.93 286.644 1596.54 284.812C1595.79 283.819 1594.85 283.232 1594.16 283.274C1593.59 283.324 1592.81 283.835 1591.98 284.712C1589.66 287.164 1588.03 290.852 1586.84 296.314C1584.62 306.566 1584.83 317.506 1585.02 328.086C1585.14 334.882 1585.27 341.908 1584.77 348.808C1584.19 356.952 1581.97 362.109 1577.99 364.573C1576.82 365.294 1575.29 364.949 1574.56 363.804C1573.84 362.661 1574.17 361.153 1575.34 360.435C1577.85 358.881 1579.36 354.853 1579.83 348.462C1580.3 341.779 1580.17 334.864 1580.05 328.175C1579.85 317.318 1579.64 306.094 1581.99 295.293C1583.36 288.929 1585.39 284.509 1588.34 281.385C1590.05 279.567 1591.88 278.565 1593.73 278.405C1596.15 278.199 1598.71 279.498 1600.52 281.884C1602.51 284.503 1603.34 287.717 1604.07 291.053C1607 304.298 1608.96 317.929 1609.9 331.564C1609.99 332.982 1610.09 334.402 1610.17 335.824C1610.57 342.254 1610.98 348.89 1612.42 355.098C1616.34 348.006 1616.6 338.649 1616.85 329.582L1617 324.458C1617.38 310.995 1617.86 294.243 1622.79 281.763C1623.9 278.95 1625.6 275.651 1628.87 275.114C1632.72 274.472 1635.85 277.928 1637.23 284.327C1639.45 294.509 1639.71 305.323 1639.98 315.781C1640.35 330.362 1640.7 344.134 1645.83 356.239C1647 359.003 1649.11 361.105 1650.26 361.261C1650.37 361.28 1650.51 361.296 1650.8 360.927C1651.46 360.13 1651.71 358.389 1651.87 357.348C1653.44 346.862 1653.79 335.72 1654.15 324.945C1654.77 305.368 1655.41 285.122 1663.38 267.981C1666.07 262.21 1669.38 262.643 1670.7 263.101C1672.25 263.649 1673.21 264.947 1673.95 266.146C1680.63 276.999 1680.77 291.178 1680.89 304.888C1680.9 306.653 1680.92 308.404 1680.95 310.139C1681.19 323.243 1682.52 335.805 1684.94 347.476C1686.02 352.682 1687.72 359.015 1691.39 361.828C1692.67 362.815 1694.44 362.984 1696.03 362.269C1697.72 361.506 1698.74 359.945 1698.84 357.988C1698.9 356.638 1700.07 355.595 1701.45 355.666C1702.81 355.731 1703.87 356.877 1703.81 358.226C1703.61 362.015 1701.49 365.187 1698.09 366.714C1696.79 367.306 1695.4 367.597 1694.03 367.597L1694.02 367.596Z" fill="#FDD100"/>
<path d="M1673.95 277.721C1675.34 280.549 1675.93 284.085 1676.11 287.132C1676.24 289.156 1676.24 291.268 1677.02 293.082C1679.87 285.131 1676.76 272.646 1671.43 266.874C1670.95 266.351 1670.42 265.854 1669.78 265.664C1669.12 265.467 1668.42 265.627 1667.79 265.971C1666.26 266.827 1665.36 268.679 1664.64 270.47C1661.73 277.752 1660.34 284.992 1660.09 293.041C1660.26 287.615 1662.99 282.884 1664.53 277.959C1665.1 276.149 1665.99 274.268 1667.55 273.59C1669.08 272.916 1670.86 273.661 1672.08 274.951C1672.81 275.74 1673.43 276.683 1673.95 277.722V277.721Z" fill="#FDD100"/>
<path d="M1631.6 294.346C1632.96 304.068 1634 313.852 1634.69 323.67C1634.92 326.931 1635.28 330.583 1637.47 332.638C1637.23 323.46 1636.99 314.28 1636.76 305.102C1636.56 297.935 1636.35 290.596 1634.07 283.931C1633.47 282.182 1632.67 280.403 1631.27 279.451C1628.96 277.875 1627.11 279.799 1626.1 282.128C1624.91 284.893 1624.26 287.481 1624.55 290.621C1625.04 289.183 1625.81 287.879 1626.8 286.846C1627.35 286.263 1628.06 285.74 1628.8 285.876C1629.71 286.045 1630.27 287.119 1630.62 288.115C1631.37 290.215 1631.3 292.151 1631.6 294.346Z" fill="#FDD100"/>
<path d="M1836.81 417.837C1837.02 417.826 1837.21 417.822 1837.43 417.83C1843.61 418.022 1849.66 424.46 1852.95 428.589C1855.02 431.176 1857.08 433.762 1859.15 436.347C1859.36 436.611 1864 442.566 1863.3 442.558C1852.3 442.424 1841.29 442.289 1830.3 442.155C1812.65 441.94 1794.99 441.725 1777.34 441.509C1774.25 441.471 1759.64 443.076 1759.84 439.065C1759.97 436.48 1763.95 432.235 1765.48 430.08C1767.58 427.138 1769.87 424.3 1772.31 421.587C1776.66 416.771 1780.81 411.406 1788.05 410.015C1794.18 408.844 1800.34 411.809 1805.2 415.353C1809.95 418.823 1814.46 422.035 1819.48 425.152C1820 425.479 1820.56 425.818 1821.2 425.84C1821.94 425.864 1822.61 425.454 1823.22 425.061C1825.41 423.634 1827.61 422.207 1829.8 420.781C1831.92 419.406 1834.24 417.972 1836.81 417.837L1836.81 417.837Z" fill="#D0DEF2"/>
<path d="M147.777 376.788C148.025 376.775 148.275 376.771 148.525 376.779C155.931 377.011 163.166 384.721 167.116 389.668C169.59 392.765 172.063 395.864 174.538 398.96C174.79 399.276 180.342 406.409 179.519 406.4C166.339 406.238 153.159 406.077 139.978 405.918C118.834 405.659 97.6902 405.401 76.5452 405.143C72.8442 405.098 55.3461 407.02 55.5862 402.216C55.7405 399.121 60.5014 394.034 62.3426 391.455C64.8581 387.929 67.5913 384.531 70.5273 381.279C75.7348 375.513 80.6946 369.085 89.386 367.421C96.7172 366.016 104.099 369.569 109.914 373.813C115.61 377.97 121.009 381.817 127.01 385.551C127.64 385.942 128.316 386.348 129.081 386.374C129.974 386.405 130.772 385.912 131.496 385.442C134.125 383.733 136.756 382.025 139.387 380.316C141.923 378.669 144.697 376.951 147.777 376.788L147.777 376.788Z" fill="#D0DEF2"/>
<path d="M412.64 591.656C412.486 591.648 412.327 591.646 412.171 591.65C407.522 591.796 402.979 596.636 400.499 599.742C398.945 601.687 397.392 603.633 395.839 605.576C395.68 605.775 392.194 610.252 392.711 610.247C400.987 610.146 409.261 610.045 417.536 609.943C430.811 609.782 444.086 609.62 457.363 609.458C459.685 609.429 470.671 610.636 470.521 607.62C470.424 605.677 467.434 602.484 466.278 600.864C464.699 598.651 462.984 596.518 461.141 594.476C457.872 590.855 454.756 586.82 449.3 585.775C444.698 584.894 440.062 587.123 436.412 589.788C432.837 592.398 429.447 594.812 425.678 597.157C425.283 597.402 424.859 597.658 424.379 597.674C423.818 597.693 423.317 597.384 422.862 597.088C421.211 596.017 419.56 594.943 417.908 593.87C416.316 592.836 414.574 591.758 412.64 591.656Z" fill="#D0DEF2"/>
<path d="M1360.36 729.452C1360.53 729.441 1360.7 729.44 1360.87 729.445C1366 729.606 1371 734.943 1373.75 738.367C1375.46 740.511 1377.17 742.655 1378.88 744.8C1379.06 745.018 1382.9 749.955 1382.33 749.949C1373.21 749.837 1364.08 749.726 1354.95 749.615C1340.32 749.436 1325.69 749.258 1311.05 749.08C1308.49 749.047 1296.37 750.379 1296.54 747.054C1296.64 744.91 1299.94 741.389 1301.21 739.602C1302.96 737.165 1304.85 734.811 1306.88 732.559C1310.49 728.567 1313.92 724.118 1319.94 722.967C1325.01 721.994 1330.12 724.453 1334.14 727.39C1338.09 730.269 1341.82 732.932 1345.98 735.517C1346.42 735.787 1346.89 736.069 1347.42 736.087C1348.03 736.107 1348.58 735.766 1349.09 735.442C1350.91 734.258 1352.73 733.075 1354.55 731.892C1356.3 730.751 1358.23 729.563 1360.36 729.451V729.452Z" fill="#D0DEF2"/>
<path d="M604.17 172.019L607.323 173.886L608.896 168.645L604.17 172.019H604.17ZM593.375 167.228L596.036 176.118L601.634 172.12L593.375 167.228H593.375ZM608.226 176.024L606.555 181.592L615.72 180.463L608.226 176.024H608.226ZM596.458 177.527L597.99 182.645L604.951 181.788L606.915 175.246L602.943 172.895L596.458 177.527H596.458ZM595.185 178.435L587.476 183.939L596.5 182.831L595.185 178.436L595.185 178.435ZM598.379 183.949L601.338 193.83L604.53 183.191L598.379 183.949ZM601.337 197.076C600.998 197.076 600.704 196.873 600.615 196.582L596.889 184.131L584.987 185.597C584.653 185.643 584.333 185.475 584.201 185.197C584.068 184.921 584.159 184.598 584.423 184.412L594.763 177.028L591.424 165.871C591.344 165.602 591.457 165.318 591.708 165.156C591.96 164.991 592.297 164.985 592.556 165.14L602.863 171.244L609.742 166.332C609.994 166.153 610.346 166.139 610.615 166.295C610.886 166.454 611.012 166.75 610.927 167.03L608.636 174.664L618.197 180.327C618.456 180.48 618.581 180.76 618.514 181.032C618.444 181.305 618.194 181.51 617.887 181.547L606.136 182.994L602.059 196.582C601.97 196.873 601.675 197.076 601.338 197.076H601.337Z" fill="#D0DEF2"/>
<path d="M1470.75 265.036L1470.24 268.367L1476.14 267.39L1470.75 265.037V265.036ZM1470.92 254.317L1463.18 260.253L1469.57 263.042L1470.92 254.317ZM1468.49 270.006L1462.21 271.043L1467.26 277.923L1468.49 270.005V270.006ZM1461.96 261.195L1457.5 264.614L1461.33 269.839L1468.7 268.621L1469.35 264.426L1461.96 261.195ZM1460.5 260.561L1451.71 256.721L1456.67 263.496L1460.5 260.561V260.561ZM1456.36 265.483L1447.77 272.083L1459.75 270.101L1456.36 265.483ZM1444.52 273.47C1444.37 273.197 1444.45 272.874 1444.7 272.679L1455.55 264.364L1448.99 255.43C1448.8 255.182 1448.84 254.853 1449.05 254.628C1449.28 254.403 1449.64 254.338 1449.93 254.47L1461.73 259.62L1471.44 252.17C1471.68 251.99 1472.02 251.959 1472.28 252.092C1472.56 252.224 1472.7 252.491 1472.66 252.765L1470.97 263.654L1478.81 267.082C1479.1 267.206 1479.26 267.483 1479.22 267.767C1479.18 268.052 1478.94 268.278 1478.62 268.33L1470.02 269.753L1468.46 279.853C1468.41 280.127 1468.18 280.348 1467.89 280.409C1467.58 280.47 1467.26 280.357 1467.1 280.126L1460.64 271.305L1445.31 273.837C1444.99 273.89 1444.66 273.739 1444.52 273.469V273.47Z" fill="#D0DEF2"/>
<path d="M1471.07 563.023L1473.45 564.73L1475.14 560.637L1471.07 563.023L1471.07 563.023ZM1462.82 558.464L1464.22 565.762L1469.03 562.935L1462.82 558.464ZM1473.98 566.502L1472.19 570.85L1479.62 570.56L1473.98 566.502V566.502ZM1464.43 566.918L1465.24 571.121L1470.88 570.901L1473 565.792L1470.01 563.644L1464.43 566.918ZM1463.34 567.56L1456.7 571.454L1464.02 571.169L1463.34 567.56ZM1465.44 572.191L1466.99 580.305L1470.43 571.995L1465.44 572.191V572.191ZM1466.71 582.905C1466.44 582.881 1466.23 582.699 1466.18 582.46L1464.23 572.238L1454.57 572.615C1454.3 572.63 1454.05 572.473 1453.98 572.243C1453.89 572.013 1453.99 571.759 1454.22 571.628L1463.12 566.406L1461.37 557.247C1461.33 557.024 1461.45 556.805 1461.66 556.692C1461.87 556.575 1462.14 556.594 1462.33 556.736L1470.08 562.316L1476 558.841C1476.23 558.714 1476.5 558.726 1476.71 558.87C1476.91 559.015 1476.99 559.261 1476.89 559.478L1474.43 565.441L1481.61 570.616C1481.81 570.757 1481.89 570.99 1481.81 571.203C1481.73 571.416 1481.51 571.564 1481.27 571.573L1471.73 571.946L1467.33 582.556C1467.24 582.783 1466.99 582.926 1466.71 582.904L1466.71 582.905Z" fill="#D0DEF2"/>
<path d="M1680.51 168.621L1682.88 170.328L1684.58 166.234L1680.51 168.62L1680.51 168.621ZM1672.26 164.06L1673.66 171.359L1678.47 168.532L1672.26 164.06ZM1683.43 172.1L1681.62 176.448L1689.07 176.157L1683.43 172.1V172.1ZM1673.87 172.516L1674.67 176.718L1680.33 176.498L1682.44 171.39L1679.46 169.24L1673.87 172.516ZM1672.78 173.158L1666.15 177.052L1673.48 176.766L1672.78 173.158ZM1674.88 177.788L1676.43 185.902L1679.87 177.593L1674.88 177.788V177.788ZM1676.15 188.501C1675.89 188.479 1675.66 188.296 1675.62 188.057L1673.68 177.835L1664.02 178.213C1663.74 178.227 1663.51 178.071 1663.42 177.841C1663.35 177.609 1663.44 177.357 1663.66 177.225L1672.56 172.003L1670.82 162.843C1670.77 162.622 1670.89 162.402 1671.1 162.289C1671.32 162.173 1671.6 162.191 1671.79 162.334L1679.54 167.913L1685.45 164.439C1685.66 164.311 1685.95 164.323 1686.15 164.467C1686.36 164.612 1686.43 164.857 1686.34 165.075L1683.87 171.038L1691.06 176.214C1691.25 176.354 1691.33 176.587 1691.25 176.8C1691.17 177.013 1690.96 177.161 1690.7 177.169L1681.17 177.542L1676.78 188.154C1676.69 188.381 1676.43 188.523 1676.15 188.501L1676.15 188.501Z" fill="#D0DEF2"/>
<path d="M408.537 310.168L410.925 311.888L412.633 307.764L408.537 310.168L408.537 310.168ZM400.224 305.574L401.626 312.928L406.48 310.079L400.224 305.574ZM411.474 313.674L409.658 318.055L417.15 317.763L411.474 313.674L411.474 313.674ZM401.848 314.094L402.655 318.328L408.346 318.106L410.481 312.959L407.472 310.793L401.848 314.094V314.094ZM400.746 314.741L394.061 318.663L401.438 318.376L400.746 314.741ZM402.861 319.406L404.42 327.582L407.889 319.209L402.861 319.406ZM404.147 330.201C403.874 330.178 403.652 329.993 403.607 329.754L401.644 319.453L391.914 319.833C391.64 319.847 391.397 319.691 391.312 319.458C391.23 319.226 391.329 318.972 391.558 318.839L400.522 313.577L398.763 304.347C398.722 304.124 398.836 303.902 399.053 303.788C399.27 303.672 399.543 303.691 399.737 303.834L407.545 309.455L413.509 305.953C413.728 305.826 414.013 305.839 414.217 305.983C414.422 306.129 414.498 306.376 414.408 306.595L411.917 312.604L419.16 317.82C419.356 317.96 419.433 318.196 419.356 318.41C419.278 318.625 419.058 318.774 418.806 318.783L409.201 319.158L404.77 329.849C404.675 330.08 404.42 330.223 404.147 330.2L404.147 330.201Z" fill="#D0DEF2"/>
<path d="M48.0141 627.28L50.4029 629L52.1118 624.875L48.0145 627.28L48.0141 627.28ZM39.702 622.686L41.1046 630.04L45.9589 627.191L39.702 622.686ZM50.9512 630.786L49.1361 635.167L56.6284 634.874L50.9516 630.786L50.9512 630.786ZM41.3262 631.205L42.1343 635.439L47.8247 635.217L49.9578 630.071L46.95 627.904L41.3262 631.205V631.205ZM40.2235 631.852L33.5397 635.775L40.9159 635.488L40.2235 631.852ZM42.3392 636.517L43.8983 644.693L47.3675 636.321L42.3392 636.517ZM43.6253 647.312C43.3519 647.29 43.1311 647.105 43.0853 646.865L41.1212 636.565L31.3922 636.944C31.118 636.959 30.8745 636.803 30.7913 636.57C30.7077 636.337 30.8075 636.083 31.0359 635.951L40.0015 630.689L38.2416 621.459C38.1996 621.234 38.3146 621.014 38.5312 620.899C38.7483 620.783 39.0206 620.802 39.2157 620.944L47.023 626.566L52.9876 623.065C53.2061 622.937 53.4913 622.95 53.6955 623.095C53.9004 623.241 53.9768 623.487 53.886 623.707L51.3952 629.715L58.6379 634.931C58.8341 635.073 58.9124 635.308 58.8338 635.521C58.7555 635.736 58.5365 635.885 58.2854 635.894L48.6793 636.27L44.2485 646.961C44.1528 647.191 43.8976 647.335 43.6257 647.311L43.6253 647.312Z" fill="#D0DEF2"/>
<path d="M1856.06 554.048L1855.54 557.38L1861.45 556.403L1856.06 554.048V554.048ZM1856.23 543.329L1848.49 549.265L1854.88 552.054L1856.23 543.329ZM1853.8 559.018L1847.52 560.055L1852.57 566.935L1853.8 559.017V559.018ZM1847.26 550.207L1842.81 553.625L1846.64 558.851L1854.01 557.633L1854.67 553.437L1847.26 550.207ZM1845.81 549.572L1837.02 545.733L1841.99 552.508L1845.81 549.573V549.572ZM1841.67 554.495L1833.06 561.095L1845.07 559.113L1841.67 554.495ZM1829.82 562.482C1829.68 562.21 1829.76 561.885 1830.01 561.691L1840.85 553.376L1834.3 544.442C1834.11 544.193 1834.14 543.864 1834.36 543.641C1834.59 543.415 1834.95 543.35 1835.24 543.482L1847.04 548.633L1856.75 541.18C1856.99 541.002 1857.31 540.971 1857.59 541.103C1857.87 541.234 1858.01 541.504 1857.97 541.778L1856.28 552.665L1864.12 556.092C1864.41 556.218 1864.57 556.495 1864.53 556.778C1864.49 557.063 1864.24 557.29 1863.94 557.341L1855.33 558.764L1853.76 568.865C1853.71 569.139 1853.49 569.36 1853.19 569.421C1852.89 569.482 1852.58 569.369 1852.42 569.137L1845.93 560.317L1830.63 562.848C1830.3 562.902 1829.97 562.751 1829.82 562.481V562.482Z" fill="#D0DEF2"/>
<path d="M574.829 724.009L574.306 727.365L580.259 726.38L574.829 724.009V724.009ZM574.998 713.208L567.199 719.19L573.635 722.001L574.998 713.208V713.208ZM572.543 729.016L566.222 730.062L571.306 736.994L572.543 729.016V729.016ZM565.962 720.138L561.472 723.582L565.333 728.848L572.761 727.621L573.418 723.394L565.962 720.139V720.138ZM564.501 719.499L555.641 715.63L560.645 722.456L564.501 719.499ZM560.329 724.458L551.658 731.11L563.741 729.111L560.329 724.458ZM548.392 732.507C548.246 732.233 548.325 731.906 548.579 731.71L559.503 723.332L552.903 714.33C552.712 714.078 552.745 713.748 552.965 713.521C553.188 713.295 553.551 713.229 553.852 713.362L565.736 718.552L575.524 711.044C575.762 710.864 576.096 710.832 576.367 710.966C576.643 711.099 576.793 711.369 576.747 711.646L575.044 722.616L582.95 726.069C583.239 726.196 583.405 726.476 583.363 726.759C583.32 727.047 583.076 727.277 582.759 727.328L574.088 728.761L572.507 738.939C572.465 739.216 572.237 739.439 571.933 739.5C571.632 739.561 571.317 739.447 571.146 739.213L564.629 730.326L549.2 732.877C548.868 732.93 548.536 732.778 548.391 732.507H548.392Z" fill="#D0DEF2"/>
<path d="M1504.18 421.043C1504.1 421.027 1504.05 421.011 1503.98 420.993L1500.33 420.351L1494.37 419.289C1494.01 419.22 1493.67 419.081 1493.38 418.892C1493 418.646 1492.69 418.307 1492.49 417.906L1491.85 416.555L1489.95 412.608L1488.72 410.054L1488.62 409.848C1487.76 408.067 1485.01 407.938 1483.95 409.629L1479.68 416.431L1479.15 417.283C1478.73 417.965 1477.98 418.401 1477.11 418.482L1476.73 418.519L1467.37 419.281C1465.22 419.463 1464.22 421.791 1465.69 423.209L1467.54 425.008L1469.58 426.979L1472.34 429.658C1472.49 429.786 1472.6 429.94 1472.68 430.092C1473.01 430.593 1473.11 431.191 1472.97 431.764L1472.5 433.63L1470.82 440.324C1470.74 440.631 1470.72 440.913 1470.78 441.2C1470.93 442.191 1471.8 442.974 1472.87 443.145C1473.38 443.237 1473.93 443.195 1474.45 442.976L1483.35 439.305C1484.12 438.978 1485.03 439.019 1485.78 439.419L1486.77 439.951L1489.53 441.415L1494.18 443.9C1496.05 444.891 1498.37 443.53 1498.11 441.602L1497.37 435.888L1496.97 432.888L1496.96 432.74C1496.92 432.035 1497.25 431.322 1497.84 430.852L1505.2 425.059C1506.78 423.824 1506.14 421.527 1504.18 421.044L1504.18 421.043Z" fill="#BBD880"/>
<path d="M413.96 417.773C414.018 417.756 414.078 417.74 414.153 417.723L417.828 417.075L423.829 416.006C424.189 415.935 424.544 415.796 424.836 415.606C425.215 415.357 425.53 415.016 425.733 414.612L426.383 413.25L428.287 409.273L429.532 406.7L429.625 406.492C430.492 404.697 433.273 404.568 434.342 406.271L438.635 413.125L439.171 413.983C439.588 414.67 440.357 415.11 441.227 415.191L441.607 415.229L451.033 415.997C453.211 416.18 454.211 418.525 452.734 419.955L450.869 421.768L448.817 423.754L446.034 426.453C445.89 426.582 445.777 426.736 445.696 426.891C445.361 427.395 445.26 427.997 445.4 428.576L445.873 430.455L447.568 437.2C447.647 437.51 447.663 437.794 447.604 438.083C447.451 439.081 446.572 439.87 445.491 440.043C444.981 440.135 444.433 440.093 443.904 439.873L434.945 436.173C434.167 435.844 433.245 435.886 432.495 436.289L431.496 436.824L428.717 438.3L424.028 440.803C422.147 441.802 419.809 440.43 420.058 438.488L420.815 432.73L421.215 429.708L421.221 429.558C421.271 428.849 420.941 428.13 420.338 427.656L412.92 421.819C411.333 420.574 411.97 418.26 413.959 417.773L413.96 417.773Z" fill="#BBD880"/>
<defs>
<clipPath id="clip0_25_490">
<rect width="1915" height="850.001" fill="white"/>
</clipPath>
</defs>
</svg>
