<svg width="75" height="75" viewBox="0 0 75 75" fill="none" xmlns="http://www.w3.org/2000/svg">
<rect x="0.75" y="0.75" width="73.5" height="73.5" rx="15.25" fill="#F8821D" stroke="#F8821D" stroke-width="1.5"/>
<path d="M38.25 28H48.25V30.5H38.25V28ZM38.25 36.75H48.25V39.25H38.25V36.75ZM38.25 45.5H48.25V48H38.25V45.5ZM30.125 46.75C28.7443 46.75 27.625 45.6308 27.625 44.25C27.625 42.8693 28.7443 41.75 30.125 41.75C31.5057 41.75 32.625 42.8693 32.625 44.25C32.625 45.6308 31.5057 46.75 30.125 46.75ZM30.125 49.25C32.8864 49.25 35.125 47.0114 35.125 44.25C35.125 41.4886 32.8864 39.25 30.125 39.25C27.3636 39.25 25.125 41.4886 25.125 44.25C25.125 47.0114 27.3636 49.25 30.125 49.25ZM28.25 30.5V34.25H32V30.5H28.25ZM25.75 28H34.5V36.75H25.75V28Z" fill="white"/>
</svg>
