<svg width="35" height="35" viewBox="0 0 35 35" fill="none" xmlns="http://www.w3.org/2000/svg">
<path d="M30.3905 16.2532L10.601 4.25842C10.3798 4.12413 10.1269 4.0511 9.86814 4.04683C9.60943 4.04256 9.35424 4.1072 9.12875 4.23412C8.90327 4.36104 8.71561 4.54566 8.58504 4.76905C8.45447 4.99244 8.38568 5.24654 8.38574 5.50529V29.4949C8.38584 29.7534 8.45466 30.0073 8.58516 30.2304C8.71566 30.4536 8.90314 30.6381 9.1284 30.765C9.35365 30.8918 9.60859 30.9566 9.86709 30.9525C10.1256 30.9484 10.3784 30.8757 10.5995 30.7418L30.3891 18.747C30.6034 18.617 30.7805 18.4339 30.9035 18.2155C31.0265 17.9971 31.0911 17.7507 31.0911 17.5001C31.0911 17.2494 31.0265 17.003 30.9035 16.7846C30.7805 16.5662 30.6034 16.3832 30.3891 16.2532H30.3905Z" stroke="white" stroke-width="1.5" stroke-linejoin="round"/>
</svg>
